<?xml version="1.0" standalone="no"?>
<!DOCTYPE svg PUBLIC "-//W3C//DTD SVG 20010904//EN"
 "http://www.w3.org/TR/2001/REC-SVG-20010904/DTD/svg10.dtd">
<svg version="1.0" xmlns="http://www.w3.org/2000/svg"
 width="540.000000pt" height="320.000000pt" viewBox="0 0 540.000000 320.000000"
 preserveAspectRatio="xMidYMid meet">

<g transform="translate(0.000000,320.000000) scale(0.100000,-0.100000)"
fill="#000000" stroke="none">
<path d="M745 3039 c-20 -18 -39 -47 -45 -69 -12 -43 -10 -2603 2 -2615 8 -9
4048 -9 4056 0 4 4 8 590 10 1302 2 1276 2 1297 -18 1337 -11 23 -33 49 -49
59 -27 16 -149 17 -1975 17 l-1945 0 -36 -31z m2240 -318 c0 -61 -9 -71 -20
-23 -5 24 7 82 17 82 2 0 3 -27 3 -59z m97 47 c-16 -16 -16 -90 0 -106 9 -9 9
-12 0 -12 -7 0 -15 8 -18 18 -3 9 -9 24 -13 32 -5 8 -5 22 0 30 4 8 10 23 13
33 3 9 11 17 18 17 9 0 9 -3 0 -12z m-597 -28 c9 -39 21 -38 29 2 3 17 9 28
12 25 9 -9 -16 -97 -27 -97 -5 0 -9 1 -9 3 0 1 -7 23 -15 50 -8 26 -10 47 -5
47 4 0 11 -13 15 -30z m-953 -30 c3 -16 1 -30 -3 -30 -4 0 -9 15 -11 34 -5 42
8 38 14 -4z m125 18 c-3 -8 -6 -5 -6 6 -1 11 2 17 5 13 3 -3 4 -12 1 -19z
m923 -4 c0 -15 8 -33 18 -41 16 -13 16 -14 -3 -11 -14 2 -21 14 -26 41 -3 20
-2 37 3 37 4 0 8 -12 8 -26z m108 4 c3 -13 -3 -18 -22 -18 -14 0 -26 -4 -26
-10 0 -5 12 -10 27 -10 20 0 24 -3 16 -11 -20 -20 -53 -1 -53 30 0 15 3 31 7
35 13 13 48 1 51 -16z m32 -11 c0 -20 0 -20 15 -1 11 15 15 16 15 4 0 -9 6 -5
15 10 18 31 20 5 4 -37 -10 -25 -12 -26 -18 -8 -8 19 -8 19 -19 0 -12 -22 -14
-18 -27 38 -4 19 -2 26 5 22 5 -3 10 -16 10 -28z m128 10 c2 -12 -3 -17 -17
-17 -28 0 -27 -18 2 -23 19 -3 20 -4 4 -11 -21 -10 -47 9 -47 33 0 38 51 54
58 18z m61 2 c-11 -11 -18 -27 -15 -34 3 -8 1 -17 -4 -20 -6 -4 -10 10 -10 32
0 34 3 39 25 41 l25 2 -21 -21z m-1458 -28 c6 9 9 10 9 2 0 -12 -18 -28 -25
-21 -2 1 -6 17 -9 33 l-6 30 11 -29 c9 -21 14 -25 20 -15z m137 22 c-1 -10 1
-24 5 -30 5 -7 4 -13 -2 -13 -12 0 -24 37 -16 50 10 16 17 12 13 -7z m254 -13
c-2 -16 -6 -30 -8 -30 -2 0 -4 14 -4 30 0 17 4 30 8 30 5 0 7 -13 4 -30z m198
20 c0 -5 -13 -10 -30 -10 -16 0 -30 5 -30 10 0 6 14 10 30 10 17 0 30 -4 30
-10z m-327 -34 c-7 -13 -11 -12 -22 7 -13 20 -13 21 2 8 15 -12 17 -11 18 5 0
11 3 14 5 7 3 -7 2 -19 -3 -27z m39 9 c3 -13 1 -22 -3 -19 -9 5 -13 44 -5 44
2 0 6 -11 8 -25z m-78 -10 c3 -8 1 -15 -4 -15 -6 0 -10 7 -10 15 0 8 2 15 4
15 2 0 6 -7 10 -15z m364 8 c-10 -2 -28 -2 -40 0 -13 2 -5 4 17 4 22 1 32 -1
23 -4z m-415 -110 c-7 -2 -13 -22 -13 -43 0 -21 6 -41 13 -43 6 -3 -1 -5 -18
-5 -16 0 -24 2 -17 5 6 2 12 22 12 43 0 21 -6 41 -12 43 -7 3 1 5 17 5 17 0
24 -2 18 -5z m95 -40 c-3 -41 -6 -48 -25 -51 -14 -2 -26 4 -32 17 -14 25 -4
51 20 51 10 0 19 7 19 15 0 8 5 15 11 15 6 0 9 -19 7 -47z m222 32 c0 -8 -4
-15 -10 -15 -5 0 -10 7 -10 15 0 8 5 15 10 15 6 0 10 -7 10 -15z m243 5 c-17
-7 -23 -18 -23 -40 0 -22 6 -33 23 -40 21 -8 21 -9 2 -9 -12 -1 -26 4 -33 11
-27 27 -5 88 31 87 l22 0 -22 -9z m487 -5 c0 -8 -4 -15 -10 -15 -5 0 -10 7
-10 15 0 8 5 15 10 15 6 0 10 -7 10 -15z m-1295 -40 c17 37 19 29 4 -14 -6
-17 -15 -31 -19 -31 -9 0 -31 56 -29 74 0 6 7 -5 16 -24 l15 -35 13 30z m156
17 l-25 -4 23 -18 c27 -20 21 -40 -12 -39 -21 0 -21 1 3 11 l25 10 -22 9 c-25
9 -31 35 -10 42 6 2 19 1 27 -2 10 -4 8 -7 -9 -9z m244 9 c3 -5 1 -12 -5 -16
-5 -3 -10 1 -10 9 0 18 6 21 15 7z m264 -40 l-2 -36 -7 35 -7 35 -2 -33 c-1
-39 -20 -34 -22 6 -1 24 -3 23 -9 -8 l-7 -35 -2 41 c-1 40 0 40 29 36 27 -4
30 -8 29 -41z m241 19 c0 -10 3 -26 6 -35 6 -14 1 -16 -27 -13 -41 4 -45 27
-9 45 l25 13 -25 0 c-19 0 -21 3 -11 9 20 13 41 2 41 -19z m78 -18 l-1 -37 -4
33 c-3 18 -10 32 -18 32 -8 0 -15 -14 -18 -32 l-4 -33 -1 37 c-2 27 2 38 16
41 27 6 32 -1 30 -41z m80 5 c-13 -43 -25 -47 -38 -11 -14 37 -11 54 4 20 l13
-29 12 33 c15 45 23 33 9 -13z m92 -7 c0 -27 -3 -30 -30 -30 -37 0 -42 31 -7
48 l22 11 -25 0 c-19 1 -22 3 -11 10 24 15 51 -6 51 -39z m65 40 c3 -5 -1 -10
-9 -10 -9 0 -16 -4 -16 -10 0 -5 7 -10 15 -10 8 0 15 -9 15 -20 0 -15 -6 -20
-27 -19 -24 2 -25 2 -5 6 27 5 29 20 2 28 -22 7 -27 31 -7 38 19 8 25 8 32 -3z
m-1465 -9 c-33 -9 -38 -38 -8 -51 l23 -10 -25 3 c-46 4 -39 68 7 66 l28 -1
-25 -7z m98 -29 c3 -31 2 -33 -25 -30 -35 4 -43 33 -11 44 l23 8 -25 7 c-23 7
-23 8 5 6 26 -2 30 -6 33 -35z m79 -2 c1 -34 1 -34 -5 -5 -4 17 -14 30 -22 30
-8 0 -18 -13 -21 -30 -6 -29 -7 -28 -8 8 -1 36 1 38 27 35 23 -3 27 -8 29 -38z
m163 4 c0 -33 -2 -35 -27 -32 -35 4 -37 28 -4 44 l24 12 -24 5 c-22 4 -22 4 4
6 25 1 27 -2 27 -35z m635 15 c4 12 9 20 12 17 6 -6 -27 -96 -36 -96 -3 0 -6
15 -7 33 0 17 -4 41 -8 52 -6 16 -4 15 12 -4 l20 -24 7 22z m-330 -28 c3 -5 1
-12 -5 -16 -5 -3 -10 1 -10 9 0 18 6 21 15 7z m-809 -102 c11 -19 8 -88 -6
-104 -18 -22 -21 -14 -11 23 6 18 6 45 1 62 -8 29 2 41 16 19z m94 -49 c0 -14
-6 -34 -12 -43 -11 -15 -13 -8 -13 43 0 51 2 58 13 43 6 -9 12 -29 12 -43z
m2498 -331 c2 -24 9 -47 15 -51 8 -5 6 -8 -6 -8 -20 0 -23 7 -30 68 -4 30 -2
42 6 39 7 -2 13 -23 15 -48z m988 -35 c-11 -56 -21 -46 -21 21 0 60 1 62 13
38 9 -15 11 -38 8 -59z m-3021 36 c11 9 12 7 8 -8 -2 -11 0 -23 6 -26 6 -4 11
-12 11 -19 0 -6 -7 -2 -15 9 -13 16 -16 17 -25 4 -7 -11 -9 -1 -8 35 0 30 3
39 5 22 4 -22 7 -26 18 -17z m168 -53 c18 -4 17 -5 -5 -6 -27 -1 -28 0 -26 52
l2 52 3 -47 c3 -39 8 -47 26 -51z m267 45 c0 -35 -4 -49 -14 -49 -11 0 -12 4
-3 18 8 13 7 21 -2 33 -9 11 -10 16 -2 16 6 0 11 7 11 15 0 8 2 15 5 15 3 0 5
-22 5 -48z m793 33 c4 8 11 15 17 15 6 0 3 -11 -5 -24 -15 -23 -15 -27 0 -50
19 -29 10 -36 -11 -8 -12 16 -14 16 -28 -3 -18 -24 -20 -15 -4 20 9 19 9 28 0
37 -20 20 -13 32 7 14 16 -15 19 -15 24 -1z m57 -2 c0 -15 1 -15 18 0 13 12
35 17 68 16 27 -1 41 -3 32 -6 -14 -3 -18 -16 -20 -51 l-1 -47 -6 45 c-5 36
-10 46 -27 48 -11 2 -27 -4 -34 -13 -11 -14 -11 -21 4 -46 20 -34 6 -40 -17
-6 l-16 22 0 -22 c-2 -47 -21 -21 -21 27 0 28 5 50 10 50 6 0 10 -7 10 -17z
m188 -76 c24 -4 24 -4 -5 -6 l-33 -1 2 53 2 52 3 -47 c4 -42 7 -47 31 -51z
m262 42 c0 -49 -1 -50 -27 -47 -23 2 -29 8 -31 36 -3 30 4 37 31 33 4 0 7 6 7
14 0 8 5 15 10 15 6 0 10 -23 10 -51z m240 36 c10 -12 10 -18 0 -30 -7 -8 -19
-15 -26 -15 -8 0 -14 -9 -14 -20 0 -11 -4 -20 -10 -20 -5 0 -10 23 -10 50 0
46 2 50 24 50 13 0 29 -7 36 -15z m456 -46 c0 -35 -3 -55 -7 -47 -13 20 -9
108 5 108 1 0 2 -27 2 -61z m-2351 1 c0 -21 -3 -36 -7 -33 -5 2 -8 23 -8 45 0
23 3 38 7 34 4 -4 8 -24 8 -46z m1495 5 c0 -41 -32 -59 -58 -33 -16 16 -15 33
4 52 18 18 54 6 54 -19z m80 -16 c0 -28 -2 -30 -32 -27 -40 4 -44 27 -8 45
l25 13 -25 0 c-19 0 -22 2 -11 9 24 16 51 -6 51 -40z m144 45 c24 -9 19 -32
-6 -36 -29 -4 -26 -21 4 -30 19 -6 18 -7 -7 -5 -23 2 -31 7 -33 25 -2 13 2 30
8 38 14 16 13 16 34 8z m80 -14 c-10 -4 -22 -20 -25 -36 -6 -28 -7 -27 -8 8
-1 27 3 38 17 41 25 5 39 -5 16 -13z m256 -20 c0 -36 -3 -40 -24 -40 -13 0
-27 7 -30 16 -9 24 -7 54 4 54 6 0 10 -14 10 -31 0 -41 24 -33 28 9 5 45 12
40 12 -8z m90 -4 c0 -41 -21 -70 -46 -63 -17 4 -16 5 4 6 27 1 30 21 3 21 -30
0 -40 39 -16 63 24 25 55 10 55 -27z m50 14 c0 -17 7 -33 18 -39 16 -10 16
-10 -1 -11 -18 0 -21 5 -31 53 -4 15 -2 27 4 27 5 0 10 -13 10 -30z m110 -21
c0 -16 -4 -29 -10 -29 -5 0 -10 14 -10 31 0 39 -22 34 -31 -7 -6 -28 -7 -27
-8 8 -1 27 3 38 17 40 25 6 42 -11 42 -43z m131 1 c4 0 10 10 14 23 3 12 8 17
11 11 6 -15 -13 -64 -25 -64 -5 0 -14 14 -20 31 -14 41 -12 63 2 27 6 -16 14
-28 18 -28z m87 14 c2 -16 9 -32 15 -36 8 -5 6 -8 -6 -8 -18 0 -21 5 -32 53
-4 21 -2 28 7 25 7 -3 15 -18 16 -34z m98 19 c17 -17 16 -18 -11 -23 -34 -6
-36 -22 -3 -32 19 -6 18 -7 -7 -5 -24 2 -31 7 -33 26 -3 15 3 30 14 38 22 16
19 16 40 -4z m174 -13 c0 -6 -11 -10 -25 -10 -31 0 -33 -18 -2 -30 21 -8 21
-9 2 -9 -41 -2 -57 35 -29 63 12 12 20 13 35 6 10 -6 19 -15 19 -20z m75 20
c3 -5 -3 -10 -14 -10 -17 0 -21 -6 -21 -30 0 -16 -4 -30 -10 -30 -5 0 -10 15
-10 34 0 32 6 39 42 45 4 0 10 -3 13 -9z m-3016 -7 c14 11 14 10 2 -6 -11 -14
-11 -21 -3 -29 7 -7 12 -16 12 -22 0 -5 -6 -1 -14 9 -13 18 -13 18 -24 -1 -6
-10 -12 -14 -12 -7 0 6 5 15 10 18 7 4 6 14 -1 28 -9 18 -9 20 2 10 10 -10 16
-10 28 0z m293 -25 c-4 -28 -3 -31 18 -25 16 4 20 3 12 -5 -16 -16 -42 -1 -42
25 0 19 7 37 15 37 1 0 -1 -14 -3 -32z m42 16 c9 -24 2 -26 -12 -4 -7 11 -8
20 -3 20 5 0 12 -7 15 -16z m84 -21 c2 -21 -1 -30 -12 -30 -8 0 -12 5 -8 11
10 16 8 40 -3 49 -6 5 -4 7 5 4 8 -2 16 -17 18 -34z m37 3 c0 -19 -3 -32 -7
-29 -14 8 -8 63 6 63 1 0 1 -15 1 -34z m123 9 c-3 -3 -9 2 -12 12 -6 14 -5 15
5 6 7 -7 10 -15 7 -18z m67 16 c-11 -4 -23 -21 -26 -37 -6 -28 -7 -28 -8 6 -1
32 2 36 27 37 22 1 24 0 7 -6z m2155 -13 c0 -16 3 -19 11 -11 6 6 18 9 25 6 9
-3 14 2 14 13 0 9 3 15 6 11 9 -8 -6 -67 -17 -67 -5 0 -9 8 -9 17 0 15 -2 14
-15 -3 -8 -10 -15 -17 -15 -14 0 3 -4 20 -9 38 -6 20 -6 32 0 32 5 0 9 -10 9
-22z m-1982 5 c-10 -2 -28 -2 -40 0 -13 2 -5 4 17 4 22 1 32 -1 23 -4z m-283
-13 c-4 -6 -1 -19 7 -28 12 -15 11 -16 -4 -3 -20 15 -24 41 -7 41 5 0 7 -5 4
-10z m-159 -19 c0 -11 -4 -17 -8 -15 -4 3 -8 12 -8 20 0 8 4 14 8 14 4 0 8 -9
8 -19z m442 2 c-10 -2 -28 -2 -40 0 -13 2 -5 4 17 4 22 1 32 -1 23 -4z m-95
-306 c17 14 19 14 9 1 -11 -14 -11 -21 3 -42 10 -14 13 -26 9 -26 -5 0 -16 10
-23 23 l-15 22 -7 -25 c-5 -17 -7 -5 -6 35 0 33 2 45 4 27 4 -34 5 -34 26 -15z
m425 -17 c-2 -36 -7 -44 -25 -46 -29 -5 -48 28 -33 56 6 11 16 20 22 20 9 0 9
-3 0 -12 -17 -17 -15 -48 4 -48 10 0 15 8 14 23 -4 49 0 71 11 60 5 -5 9 -30
7 -53z m300 9 c2 -24 9 -47 15 -51 8 -5 9 -8 1 -8 -6 0 -16 6 -22 13 -14 17
-20 98 -7 94 5 -2 11 -23 13 -48z m262 -2 c0 -46 -3 -53 -20 -54 -28 -2 -48
40 -30 62 7 9 19 14 27 11 8 -3 13 2 13 14 0 11 2 20 5 20 3 0 5 -24 5 -53z
m149 21 c-5 -19 -5 -45 0 -65 10 -34 -5 -49 -15 -15 -3 9 -9 24 -13 32 -5 8
-5 22 0 30 4 8 10 23 13 33 10 32 25 18 15 -15z m-1689 -23 c0 -25 -3 -45 -7
-45 -7 0 -8 15 -4 78 1 6 3 12 6 12 3 0 5 -20 5 -45z m142 -7 c2 -21 0 -38 -4
-38 -4 0 -8 21 -7 48 1 52 6 48 11 -10z m494 37 c9 -8 11 -15 5 -15 -15 0 -14
-57 2 -64 6 -3 3 -5 -8 -3 -14 2 -22 12 -25 37 -6 34 -3 60 7 60 2 0 11 -7 19
-15z m74 -65 c10 0 22 -4 25 -10 4 -6 -7 -10 -24 -10 -31 0 -31 0 -29 53 1 50
2 50 5 10 3 -34 8 -43 23 -43z m886 25 c0 -30 -4 -49 -8 -42 -14 21 -9 97 7
97 0 0 1 -25 1 -55z m-1121 25 c18 15 20 -1 3 -18 -9 -9 -9 -15 0 -24 17 -17
15 -33 -3 -18 -12 10 -18 10 -30 0 -17 -14 -21 0 -4 17 8 8 7 17 -2 34 -11 22
-11 23 4 10 14 -11 20 -11 32 -1z m339 -12 c13 -21 -2 -51 -27 -56 -23 -5 -40
33 -27 59 13 23 38 22 54 -3z m70 16 c10 -4 16 -18 16 -39 0 -29 -3 -32 -27
-31 -35 1 -45 35 -14 43 11 3 18 9 16 14 -3 4 -13 5 -22 2 -11 -4 -14 -3 -9 5
8 13 17 15 40 6z m174 -16 c3 -13 -3 -18 -22 -18 -14 0 -26 -4 -26 -10 0 -10
14 -14 40 -10 11 1 12 -1 4 -10 -20 -21 -54 -2 -54 29 0 15 3 31 7 35 13 13
48 1 51 -16z m82 13 c0 -5 -9 -11 -19 -14 -12 -3 -21 -16 -24 -33 -3 -23 -4
-21 -6 11 -1 37 2 41 24 43 14 1 25 -2 25 -7z m240 -11 c20 -38 -19 -77 -48
-48 -23 23 -7 68 25 68 7 0 17 -9 23 -20z m81 -17 c5 -26 3 -32 -14 -37 -29
-7 -51 12 -36 30 6 8 19 14 28 14 13 1 13 3 -4 16 -20 15 -20 16 0 12 12 -2
21 -14 26 -35z m-1674 -20 c-3 -10 -5 -2 -5 17 0 19 2 27 5 18 2 -10 2 -26 0
-35z m30 0 c-3 -10 -5 -2 -5 17 0 19 2 27 5 18 2 -10 2 -26 0 -35z m31 6 c-3
-20 -5 -19 -9 9 -3 20 -2 29 4 23 5 -5 7 -19 5 -32z m29 10 c0 -21 -3 -26 -9
-16 -4 9 -5 22 -2 31 9 23 11 20 11 -15z m43 1 c0 -16 -3 -30 -7 -30 -5 0 -8
14 -8 30 0 17 3 30 8 30 4 0 7 -13 7 -30z m35 1 c0 -16 -3 -27 -7 -24 -13 7
-7 53 6 53 1 0 1 -13 1 -29z m90 -1 c0 -16 -3 -30 -7 -30 -5 0 -8 14 -8 30 0
17 3 30 8 30 4 0 7 -13 7 -30z m285 20 c0 -5 -13 -10 -30 -10 -16 0 -30 5 -30
10 0 6 14 10 30 10 17 0 30 -4 30 -10z m0 -30 c0 -5 -13 -10 -30 -10 -16 0
-30 5 -30 10 0 6 14 10 30 10 17 0 30 -4 30 -10z m870 -20 c0 -5 -2 -10 -4
-10 -3 0 -8 5 -11 10 -3 6 -1 10 4 10 6 0 11 -4 11 -10z m-820 -119 c0 -20 5
-42 12 -49 9 -9 9 -12 0 -12 -15 0 -19 10 -25 68 -3 24 -1 40 4 36 5 -3 9 -22
9 -43z m-780 -12 c0 -49 -1 -50 -27 -47 -24 3 -28 8 -28 33 0 23 5 31 23 33
12 2 22 10 22 18 0 8 2 14 5 14 3 0 5 -23 5 -51z m217 19 c-3 -7 -5 -2 -5 12
0 14 2 19 5 13 2 -7 2 -19 0 -25z m227 15 c4 -9 2 -19 -3 -22 -5 -3 -11 -20
-14 -36 -2 -19 -5 -11 -6 23 -1 51 10 69 23 35z m45 -35 c-1 -47 -2 -49 -8
-18 -5 29 -8 31 -14 16 -4 -10 -10 -16 -13 -13 -8 7 18 67 28 67 5 0 7 -24 7
-52z m161 1 c0 -49 -1 -50 -27 -47 -23 2 -29 8 -31 36 -3 30 4 37 31 33 4 0 7
6 7 14 0 8 5 15 10 15 6 0 10 -23 10 -51z m220 30 c0 -11 -4 -17 -10 -14 -5 3
-10 13 -10 21 0 8 5 14 10 14 6 0 10 -9 10 -21z m-300 -37 c-1 -50 -53 -57
-58 -8 -2 16 2 32 9 37 18 11 49 -8 49 -29z m160 12 c0 -8 -10 -14 -26 -14
-32 0 -27 -22 7 -32 22 -6 21 -7 -6 -5 -24 2 -31 7 -33 26 -3 15 3 30 13 37
20 15 45 8 45 -12z m-822 -42 c16 -13 15 -14 -3 -10 -15 2 -20 12 -22 38 -1
23 1 26 4 10 2 -14 12 -31 21 -38z m152 48 c0 -5 -4 -10 -10 -10 -5 0 -10 5
-10 10 0 6 5 10 10 10 6 0 10 -4 10 -10z m267 -30 c1 -19 -1 -26 -3 -15 -11
46 -18 50 -24 15 l-7 -35 -2 33 c0 17 -5 32 -10 32 -6 0 -12 -15 -14 -32 -4
-32 -4 -32 -5 5 -2 37 -1 38 31 35 29 -3 32 -6 34 -38z m38 13 l8 -28 10 28
c6 15 14 27 18 27 12 0 -28 -94 -42 -99 -11 -3 -12 -1 -1 11 10 12 9 22 -3 52
-8 20 -11 36 -6 36 5 0 12 -12 16 -27z m-305 -28 c0 -8 -4 -15 -10 -15 -5 0
-10 7 -10 15 0 8 5 15 10 15 6 0 10 -7 10 -15z m894 -4 c3 -4 -1 -17 -8 -27
-13 -17 -14 -17 -13 9 2 27 11 35 21 18z m-224 -130 c0 -40 -4 -50 -20 -54
-24 -6 -43 15 -38 45 2 15 11 24 26 26 12 2 22 10 22 18 0 8 2 14 5 14 3 0 5
-22 5 -49z m130 9 c0 -27 5 -42 17 -49 10 -5 15 -13 11 -17 -15 -14 -36 18
-40 61 -2 25 0 45 4 45 5 0 8 -18 8 -40z m270 -10 c0 -46 -2 -50 -24 -50 -30
0 -40 14 -32 46 4 15 14 24 26 24 11 0 20 7 20 15 0 8 2 15 5 15 3 0 5 -22 5
-50z m220 5 c0 -25 5 -45 10 -45 6 0 10 -4 10 -10 0 -5 -6 -7 -14 -4 -15 6
-27 104 -13 104 4 0 7 -20 7 -45z m399 -5 c4 0 13 6 21 13 12 10 12 9 2 -4 -9
-12 -8 -20 4 -37 8 -12 11 -22 6 -22 -6 0 -12 7 -16 15 -8 22 -24 18 -29 -7
-2 -13 -4 4 -4 37 0 33 2 48 4 33 2 -16 8 -28 12 -28z m168 18 c-3 -7 -5 -2
-5 12 0 14 2 19 5 13 2 -7 2 -19 0 -25z m-1620 0 c-3 -8 -6 -5 -6 6 -1 11 2
17 5 13 3 -3 4 -12 1 -19z m162 -37 c-12 -28 -24 -49 -27 -46 -3 3 5 28 18 55
30 65 37 58 9 -9z m566 2 c-14 -26 -23 -37 -19 -23 9 35 34 83 40 77 3 -3 -6
-27 -21 -54z m821 42 c9 -8 11 -15 5 -15 -15 0 -14 -47 2 -53 6 -2 9 -8 4 -13
-11 -12 -35 17 -37 46 -4 54 1 60 26 35z m-1948 -12 c-21 -5 -24 -23 -4 -23
19 0 29 -30 11 -36 -7 -3 -22 -4 -32 -1 -14 4 -13 5 5 6 24 1 31 21 8 21 -8 0
-18 5 -21 10 -10 16 4 30 28 29 17 -1 18 -2 5 -6z m87 -2 c-11 -4 -23 -21 -26
-37 -6 -28 -7 -28 -8 6 -1 32 2 36 27 37 22 1 24 0 7 -6z m78 2 c-13 -2 -24
-9 -24 -14 -5 -28 -2 -34 21 -40 l25 -7 -27 -1 c-32 -1 -42 12 -34 45 5 19 13
24 34 23 23 -2 24 -2 5 -6z m77 -3 c0 -5 -4 -10 -10 -10 -5 0 -10 5 -10 10 0
6 5 10 10 10 6 0 10 -4 10 -10z m428 -27 c-1 -38 -1 -38 -5 -5 -5 38 -22 33
-24 -6 -1 -24 -3 -23 -9 8 l-7 35 -2 -32 c-1 -44 -21 -42 -21 2 0 33 2 35 35
35 34 0 35 -1 33 -37z m77 2 c0 -25 -4 -30 -27 -33 -25 -3 -28 0 -28 26 0 35
8 44 35 40 15 -2 20 -10 20 -33z m163 13 c3 -14 -3 -18 -23 -18 -15 0 -24 -4
-20 -10 3 -5 16 -10 28 -10 17 0 19 -2 8 -9 -32 -20 -71 36 -44 63 13 13 48 1
51 -16z m145 15 c-26 -5 -31 -23 -8 -23 21 0 31 -30 15 -40 -7 -5 -20 -5 -29
-2 -12 5 -10 8 9 13 l25 7 -22 7 c-34 11 -30 45 5 44 23 -2 24 -2 5 -6z m233
-53 c9 0 14 11 14 30 0 17 5 30 10 30 6 0 10 -16 10 -35 0 -32 -2 -35 -30 -35
-28 0 -30 2 -28 38 1 36 1 36 5 5 3 -20 10 -33 19 -33z m109 25 c0 -23 -5 -31
-22 -33 -12 -2 -24 -11 -26 -20 -3 -9 -5 7 -6 36 -1 52 -1 53 27 50 23 -3 27
-8 27 -33z m163 13 c3 -14 -3 -18 -23 -18 -15 0 -24 -4 -20 -10 3 -5 16 -10
28 -10 17 0 19 -2 8 -9 -32 -20 -71 36 -44 63 13 13 48 1 51 -16z m45 10 c3
-10 8 -9 22 2 17 14 18 14 8 -5 -8 -14 -8 -25 -1 -40 10 -18 10 -19 -6 -6 -14
12 -18 12 -31 -5 -8 -10 -15 -14 -15 -8 0 5 6 16 12 22 10 10 10 17 0 32 -7
11 -8 20 -3 20 5 0 11 -6 14 -12z m186 5 c12 10 13 9 4 -8 -8 -14 -8 -26 -1
-40 9 -16 8 -18 -3 -8 -10 10 -16 9 -31 -4 -10 -9 -18 -11 -18 -5 0 6 5 14 11
18 6 3 8 17 4 33 -5 21 -4 23 6 14 10 -10 16 -10 28 0z m-1549 -53 c0 -5 -4
-10 -10 -10 -5 0 -10 5 -10 10 0 6 5 10 10 10 6 0 10 -4 10 -10z m240 0 c0 -5
-5 -10 -11 -10 -5 0 -7 5 -4 10 3 6 8 10 11 10 2 0 4 -4 4 -10z m1220 0 c0 -5
-5 -10 -11 -10 -5 0 -7 5 -4 10 3 6 8 10 11 10 2 0 4 -4 4 -10z m410 -9 c0
-11 -4 -22 -9 -25 -5 -3 -8 6 -8 19 0 14 3 25 8 25 5 0 9 -9 9 -19z m-1610
-125 c0 -48 -2 -53 -21 -52 -30 1 -47 31 -33 54 7 9 19 16 28 16 10 -1 16 6
16 17 0 11 2 19 5 19 3 0 5 -24 5 -54z m140 5 c0 -20 5 -42 12 -49 9 -9 9 -12
0 -12 -15 0 -19 10 -25 68 -3 24 -1 40 4 36 5 -3 9 -22 9 -43z m1380 6 c0 -24
6 -49 13 -56 10 -11 9 -13 -3 -9 -9 3 -16 20 -18 44 -2 21 -8 44 -14 51 -8 10
-6 13 6 13 12 0 16 -10 16 -43z m270 -11 c0 -51 -1 -53 -27 -52 -25 1 -28 5
-28 36 0 29 4 36 23 38 12 2 22 10 22 18 0 8 2 14 5 14 3 0 5 -24 5 -54z m218
8 c2 -21 8 -44 14 -51 7 -8 7 -13 0 -13 -17 0 -30 24 -34 68 -2 26 0 41 7 39
5 -2 11 -21 13 -43z m-2349 8 c-13 -5 -11 -46 4 -61 10 -11 9 -13 -3 -9 -15 5
-31 62 -23 84 4 10 8 10 18 1 7 -7 9 -13 4 -15z m148 6 l10 -23 7 23 c13 40
26 23 25 -30 -2 -52 -2 -52 -8 -13 -6 37 -7 38 -18 20 -12 -19 -13 -19 -20 5
-7 22 -9 20 -14 -20 l-6 -45 -1 53 c-2 55 8 67 25 30z m416 15 c-30 -6 -29
-21 2 -35 14 -6 25 -19 25 -29 0 -22 -38 -35 -54 -19 -8 9 -6 11 11 6 21 -7
47 14 26 21 -47 16 -56 64 -11 62 l23 -2 -22 -4z m404 -15 c-3 -8 -6 -5 -6 6
-1 11 2 17 5 13 3 -3 4 -12 1 -19z m166 -33 c-15 -30 -29 -52 -32 -50 -6 7 41
105 51 105 4 0 -4 -25 -19 -55z m246 27 c-13 -5 -11 -46 4 -61 10 -11 9 -13
-3 -9 -8 3 -17 15 -18 29 -2 13 -7 28 -12 33 -13 14 12 35 26 22 7 -6 8 -12 3
-14z m135 -19 c-9 -65 -14 -67 -14 -5 0 30 4 52 11 52 7 0 8 -16 3 -47z m56 2
c0 -54 -16 -60 -23 -7 -5 40 -1 52 14 52 5 0 9 -20 9 -45z m152 -4 c-3 -41 -7
-48 -24 -47 -44 2 -50 62 -8 73 11 3 20 9 20 14 0 5 3 9 8 9 4 0 5 -22 4 -49z
m319 32 c-5 -10 -16 -36 -25 -57 -9 -22 -18 -37 -21 -34 -8 7 36 108 47 108 5
0 5 -7 -1 -17z m956 -15 c-3 -7 -5 -2 -5 12 0 14 2 19 5 13 2 -7 2 -19 0 -25z
m-3141 -34 l1 -39 -4 38 c-5 42 -22 41 -24 -1 -1 -24 -3 -23 -9 8 l-7 35 -2
-32 c-1 -41 -21 -44 -21 -4 0 31 12 41 45 37 16 -2 20 -11 21 -42z m68 40 c26
-10 19 -34 -10 -34 -16 0 -24 -5 -21 -12 2 -7 15 -12 28 -10 17 2 21 0 12 -9
-6 -6 -20 -8 -32 -4 -23 7 -29 43 -9 63 14 14 12 14 32 6z m160 0 c10 -4 16
-18 16 -39 0 -29 -3 -32 -27 -31 -37 1 -39 37 -3 46 17 4 21 8 12 14 -6 4 -16
4 -22 1 -5 -3 -10 -1 -10 4 0 12 11 14 34 5z m174 -32 c2 -22 -2 -34 -12 -38
-34 -13 -61 37 -34 64 21 21 43 9 46 -26z m160 26 c19 -19 14 -28 -14 -28 -16
0 -24 -5 -21 -12 2 -7 14 -12 26 -11 13 2 20 -1 16 -7 -3 -6 -12 -10 -20 -10
-15 0 -45 27 -45 40 0 10 29 40 39 40 4 0 12 -5 19 -12z m252 0 c0 -5 -4 -7
-9 -4 -12 8 -28 -14 -34 -44 -3 -17 -5 -13 -6 15 -1 36 2 40 24 41 14 1 25 -2
25 -8z m58 1 c-10 -5 -18 -19 -18 -29 0 -10 8 -24 18 -29 14 -9 14 -10 2 -11
-20 0 -40 20 -40 40 0 20 20 40 40 40 12 -1 12 -2 -2 -11z m82 1 c0 -5 -4 -10
-10 -10 -5 0 -10 5 -10 10 0 6 5 10 10 10 6 0 10 -4 10 -10z m427 -31 l1 -34
-8 30 -8 30 -1 -27 c0 -16 -5 -28 -11 -28 -5 0 -11 12 -11 28 l-2 27 -4 -27
c-6 -37 -23 -36 -23 0 0 36 7 43 39 39 22 -3 26 -9 28 -38z m71 29 c19 -19 14
-28 -14 -28 -16 0 -24 -5 -21 -12 2 -7 15 -12 28 -10 17 2 21 0 12 -9 -6 -6
-20 -8 -32 -4 -35 11 -27 69 10 74 3 1 10 -4 17 -11z m156 6 c10 -4 16 -18 16
-39 0 -29 -3 -32 -27 -31 -37 1 -39 37 -3 46 17 4 21 8 12 14 -6 4 -16 4 -22
1 -5 -3 -10 -1 -10 4 0 12 11 14 34 5z m174 -32 c2 -22 -2 -34 -12 -38 -34
-13 -61 37 -34 64 21 21 43 9 46 -26z m160 26 c19 -19 14 -28 -14 -28 -16 0
-24 -5 -21 -12 2 -7 12 -12 21 -12 9 1 16 -2 16 -7 0 -17 -39 -9 -50 11 -20
38 19 77 48 48z m162 2 c0 -5 -7 -7 -15 -4 -22 9 -18 -9 6 -24 16 -11 18 -16
9 -28 -15 -17 -36 -18 -46 -2 -5 7 -2 9 8 5 26 -9 29 4 6 23 -12 9 -18 22 -14
28 9 14 46 16 46 2z m250 -28 c0 -32 -3 -38 -22 -39 -26 -2 -38 12 -38 45 0
32 18 27 22 -5 4 -39 22 -35 26 5 4 44 12 41 12 -6z m84 16 c13 -21 -2 -53
-25 -53 -8 0 -17 -9 -21 -20 -3 -12 -6 4 -7 36 -1 51 1 56 20 55 12 0 27 -9
33 -18z m154 10 c19 -19 14 -28 -14 -28 -16 0 -24 -5 -21 -12 2 -7 12 -12 21
-12 9 1 16 -2 16 -7 0 -13 -34 -11 -48 3 -22 22 -7 68 23 68 6 0 16 -5 23 -12z
m71 -3 c6 3 8 0 5 -9 -3 -8 0 -25 7 -38 12 -23 11 -23 -8 -5 -19 17 -21 17
-27 1 -4 -9 -9 -14 -13 -11 -3 4 0 14 7 22 10 12 10 19 2 27 -17 17 -15 33 3
18 8 -6 19 -9 24 -5z m159 -37 c-2 -35 -8 -53 -18 -56 -12 -4 -13 -2 -2 9 6 7
12 30 12 50 0 21 -6 40 -12 42 -8 3 -5 6 5 6 16 1 18 -6 15 -51z m92 42 c0 -5
-7 -7 -15 -4 -22 9 -18 -5 8 -27 19 -16 20 -20 7 -29 -19 -12 -40 -13 -40 0 0
5 7 7 15 4 23 -9 18 14 -6 26 -16 9 -18 14 -8 26 13 16 39 19 39 4z m88 -28
c2 -22 -2 -34 -12 -38 -34 -13 -61 37 -34 64 21 21 43 9 46 -26z m79 -8 c1
-38 1 -38 -5 -6 -9 41 -26 46 -30 10 -4 -37 -22 -36 -22 1 0 20 6 31 18 34 30
8 37 1 39 -39z m-1401 9 c-10 -10 -19 5 -10 18 6 11 8 11 12 0 2 -7 1 -15 -2
-18z m-726 -23 c0 -5 -4 -10 -10 -10 -5 0 -10 5 -10 10 0 6 5 10 10 10 6 0 10
-4 10 -10z m240 -10 c0 -5 -2 -10 -4 -10 -3 0 -8 5 -11 10 -3 6 -1 10 4 10 6
0 11 -4 11 -10z m1550 6 c0 -3 -4 -8 -10 -11 -5 -3 -10 -1 -10 4 0 6 5 11 10
11 6 0 10 -2 10 -4z m-2917 -144 c0 -41 -8 -62 -23 -62 -5 0 -5 13 0 30 5 17
5 44 -1 62 -12 44 -12 45 7 26 10 -10 17 -33 17 -56z m83 -11 c-9 -58 -21 -53
-21 10 0 51 2 57 13 42 8 -11 11 -32 8 -52z"/>
<path d="M2650 2730 c0 -5 7 -10 16 -10 8 0 12 5 9 10 -3 6 -10 10 -16 10 -5
0 -9 -4 -9 -10z"/>
<path d="M2815 2730 c-3 -5 1 -10 10 -10 9 0 13 5 10 10 -3 6 -8 10 -10 10 -2
0 -7 -4 -10 -10z"/>
<path d="M1670 2535 c0 -16 6 -25 15 -25 9 0 15 9 15 25 0 16 -6 25 -15 25 -9
0 -15 -9 -15 -25z"/>
<path d="M2245 2529 c-10 -15 3 -25 16 -12 7 7 7 13 1 17 -6 3 -14 1 -17 -5z"/>
<path d="M2487 2533 c-12 -11 -8 -23 8 -23 8 0 15 7 15 15 0 16 -12 20 -23 8z"/>
<path d="M1187 2533 c-12 -11 -8 -23 8 -23 8 0 15 7 15 15 0 16 -12 20 -23 8z"/>
<path d="M1435 2529 c-4 -6 -5 -13 -2 -16 7 -7 27 6 27 18 0 12 -17 12 -25 -2z"/>
<path d="M3212 2018 c5 -32 28 -35 28 -4 0 17 -5 26 -16 26 -10 0 -14 -7 -12
-22z"/>
<path d="M3460 2050 c0 -13 5 -20 13 -17 6 2 12 10 12 17 0 7 -6 15 -12 18 -8
2 -13 -5 -13 -18z"/>
<path d="M3052 2018 c5 -32 28 -35 28 -4 0 17 -5 26 -16 26 -10 0 -14 -7 -12
-22z"/>
<path d="M3143 2013 c-18 -7 -16 -23 2 -23 8 0 15 7 15 15 0 8 -1 15 -2 14 -2
0 -9 -3 -15 -6z"/>
<path d="M3308 2033 c7 -3 16 -2 19 1 4 3 -2 6 -13 5 -11 0 -14 -3 -6 -6z"/>
<path d="M3700 2015 c0 -16 6 -25 15 -25 9 0 15 9 15 25 0 16 -6 25 -15 25 -9
0 -15 -9 -15 -25z"/>
<path d="M4198 2033 c7 -3 16 -2 19 1 4 3 -2 6 -13 5 -11 0 -14 -3 -6 -6z"/>
<path d="M4358 2033 c7 -3 16 -2 19 1 4 3 -2 6 -13 5 -11 0 -14 -3 -6 -6z"/>
<path d="M3134 1686 c-8 -21 3 -49 16 -41 5 3 10 15 10 25 0 25 -18 36 -26 16z"/>
<path d="M2404 1687 c-3 -9 -3 -25 0 -34 6 -15 8 -15 24 0 15 16 15 18 0 34
-16 15 -18 15 -24 0z"/>
<path d="M2485 1661 c-6 -11 9 -23 19 -14 9 9 7 23 -3 23 -6 0 -12 -4 -16 -9z"/>
<path d="M2655 1690 c-3 -5 1 -10 10 -10 9 0 13 5 10 10 -3 6 -8 10 -10 10 -2
0 -7 -4 -10 -10z"/>
<path d="M2974 1686 c-8 -21 3 -49 16 -41 5 3 10 15 10 25 0 25 -18 36 -26 16z"/>
<path d="M3052 1659 c2 -6 8 -10 13 -10 5 0 11 4 13 10 2 6 -4 11 -13 11 -9 0
-15 -5 -13 -11z"/>
<path d="M1182 1498 c5 -32 28 -35 28 -4 0 17 -5 26 -16 26 -10 0 -14 -7 -12
-22z"/>
<path d="M1830 1495 c0 -16 6 -25 15 -25 9 0 15 9 15 25 0 16 -6 25 -15 25 -9
0 -15 -9 -15 -25z"/>
<path d="M1752 1498 c5 -32 28 -35 28 -4 0 17 -5 26 -16 26 -10 0 -14 -7 -12
-22z"/>
<path d="M1918 1513 c6 -2 18 -2 25 0 6 3 1 5 -13 5 -14 0 -19 -2 -12 -5z"/>
<path d="M1917 1343 c-13 -12 -7 -43 7 -43 19 0 28 14 20 34 -7 17 -16 20 -27
9z"/>
<path d="M2320 1326 c0 -17 5 -26 16 -26 10 0 14 7 12 22 -5 32 -28 35 -28 4z"/>
<path d="M1837 1344 c-15 -15 -7 -45 11 -42 9 2 17 12 17 22 0 20 -16 31 -28
20z"/>
<path d="M2000 1340 c0 -5 4 -10 9 -10 6 0 13 5 16 10 3 6 -1 10 -9 10 -9 0
-16 -4 -16 -10z"/>
<path d="M2483 1334 c-8 -21 13 -42 28 -27 13 13 5 43 -11 43 -6 0 -13 -7 -17
-16z"/>
<path d="M2650 1340 c0 -5 7 -10 15 -10 8 0 15 5 15 10 0 6 -7 10 -15 10 -8 0
-15 -4 -15 -10z"/>
<path d="M1590 1165 c-10 -12 -10 -18 0 -30 15 -18 30 -11 30 15 0 26 -15 33
-30 15z"/>
<path d="M3374 1167 c-3 -9 -3 -25 0 -34 6 -15 8 -15 24 0 15 16 15 18 0 34
-16 15 -18 15 -24 0z"/>
<path d="M2974 1166 c-8 -21 3 -49 16 -41 5 3 10 15 10 25 0 25 -18 36 -26 16z"/>
<path d="M1185 1170 c-3 -5 3 -10 15 -10 12 0 18 5 15 10 -3 6 -10 10 -15 10
-5 0 -12 -4 -15 -10z"/>
<path d="M1345 1141 c-3 -5 -1 -12 5 -16 12 -7 30 2 30 16 0 12 -27 12 -35 0z"/>
<path d="M1514 1166 c-8 -21 3 -49 16 -41 5 3 10 15 10 25 0 25 -18 36 -26 16z"/>
<path d="M1675 1170 c-3 -5 1 -10 9 -10 9 0 16 5 16 10 0 6 -4 10 -9 10 -6 0
-13 -4 -16 -10z"/>
<path d="M2565 1170 c-3 -5 1 -10 9 -10 9 0 16 5 16 10 0 6 -4 10 -9 10 -6 0
-13 -4 -16 -10z"/>
<path d="M2727 1144 c-4 -4 -4 -10 -1 -15 6 -10 34 0 34 12 0 10 -24 12 -33 3z"/>
<path d="M2890 1165 c-10 -12 -10 -18 0 -30 15 -18 30 -11 30 15 0 26 -15 33
-30 15z"/>
<path d="M3055 1170 c-3 -5 1 -10 10 -10 9 0 13 5 10 10 -3 6 -8 10 -10 10 -2
0 -7 -4 -10 -10z"/>
<path d="M3544 1166 c-8 -21 3 -49 16 -41 5 3 10 15 10 25 0 25 -18 36 -26 16z"/>
<path d="M3705 1170 c-3 -5 1 -10 10 -10 9 0 13 5 10 10 -3 6 -8 10 -10 10 -2
0 -7 -4 -10 -10z"/>
<path d="M4110 1165 c-10 -12 -10 -18 0 -30 15 -18 30 -11 30 15 0 26 -15 33
-30 15z"/>
<path d="M318 222 c17 -8 32 -19 32 -23 0 -5 1039 -9 2358 -8 2265 1 2359 1
2407 19 49 18 -6 18 -2377 19 -1334 1 -2432 2 -2440 4 -7 2 2 -3 20 -11z"/>
</g>
</svg>
