<?xml version="1.0" standalone="no"?>
<!DOCTYPE svg PUBLIC "-//W3C//DTD SVG 20010904//EN"
 "http://www.w3.org/TR/2001/REC-SVG-20010904/DTD/svg10.dtd">
<svg version="1.0" xmlns="http://www.w3.org/2000/svg"
 width="540.000000pt" height="320.000000pt" viewBox="0 0 540.000000 320.000000"
 preserveAspectRatio="xMidYMid meet">

<g transform="translate(0.000000,320.000000) scale(0.100000,-0.100000)"
fill="#000000" stroke="none">
<path d="M745 3039 c-20 -18 -39 -47 -45 -69 -12 -43 -10 -2603 2 -2615 8 -9
4048 -9 4056 0 4 4 8 590 10 1302 2 1276 2 1297 -18 1337 -11 23 -33 49 -49
59 -27 16 -149 17 -1975 17 l-1945 0 -36 -31z m3875 -1339 l0 -1230 -1890 0
-1890 0 0 1230 0 1230 1890 0 1890 0 0 -1230z"/>
<path d="M2274 2791 c-27 -16 -32 -26 -37 -72 -10 -88 -25 -129 -45 -123 -13
5 -14 4 -3 -4 8 -6 11 -17 8 -27 -13 -33 48 -108 105 -128 9 -3 51 1 95 8 43
8 101 14 129 15 55 0 63 7 70 63 2 15 13 46 24 69 25 53 25 57 -5 98 -32 43
-90 77 -173 101 -84 24 -129 24 -168 0z m73 -44 c-7 -18 -13 -34 -14 -36 -5
-8 -53 42 -53 55 0 7 12 14 28 16 45 6 51 1 39 -35z m-20 -70 c-4 -14 -77 57
-77 76 0 9 15 -1 40 -26 23 -22 39 -44 37 -50z m280 -11 c-4 -12 -54 -33 -60
-25 -2 2 -2 21 1 41 l4 38 30 -21 c16 -12 27 -26 25 -33z m-206 24 c14 -11 18
-19 11 -20 -19 0 -52 19 -52 30 0 16 16 12 41 -10z m-21 -26 c0 -2 -7 -4 -15
-4 -8 0 -15 4 -15 10 0 5 7 7 15 4 8 -4 15 -8 15 -10z m130 -8 c0 -9 -8 -12
-25 -8 -37 7 -41 22 -6 22 20 0 31 -5 31 -14z m48 -26 c47 0 63 -3 52 -10 -22
-14 -118 -9 -138 7 -16 14 -16 14 1 9 10 -3 49 -6 85 -6z"/>
<path d="M2040 2613 c0 -6 4 -13 10 -15 10 -3 -6 -86 -20 -101 -4 -4 -13 6
-20 24 -12 28 -11 36 3 60 9 16 12 29 8 29 -11 0 -41 -74 -41 -98 0 -13 2 -14
9 -3 16 24 32 -23 25 -70 l-7 -42 -19 22 c-10 13 -18 19 -18 15 0 -5 10 -22
23 -37 20 -26 26 -28 84 -25 l63 3 -38 50 c-48 64 -55 81 -37 99 10 9 11 16 4
18 -6 2 -10 12 -8 22 3 15 11 10 38 -24 27 -34 31 -44 20 -52 -11 -8 -10 -9 3
-4 11 3 23 -3 33 -17 15 -21 14 -22 -12 -28 -26 -6 -25 -7 9 -8 30 -1 40 -7
55 -31 9 -16 21 -30 26 -30 10 0 -5 22 -92 135 l-62 80 38 6 38 6 -45 2 c-26
0 -51 6 -58 13 -8 8 -12 9 -12 1z m24 -158 c4 -10 -1 -15 -14 -15 -11 0 -20 7
-20 15 0 8 6 15 14 15 8 0 16 -7 20 -15z m36 -50 c11 -13 7 -15 -31 -14 -24 0
-38 3 -30 6 11 5 11 7 0 14 -10 6 -4 9 17 9 17 0 37 -7 44 -15z"/>
<path d="M1972 2470 c0 -14 2 -19 5 -12 2 6 2 18 0 25 -3 6 -5 1 -5 -13z"/>
<path d="M2568 2393 c12 -2 30 -2 40 0 9 3 -1 5 -23 4 -22 0 -30 -2 -17 -4z"/>
<path d="M2638 2393 c7 -3 16 -2 19 1 4 3 -2 6 -13 5 -11 0 -14 -3 -6 -6z"/>
<path d="M2518 2383 c7 -3 16 -2 19 1 4 3 -2 6 -13 5 -11 0 -14 -3 -6 -6z"/>
<path d="M2728 2383 c6 -2 18 -2 25 0 6 3 1 5 -13 5 -14 0 -19 -2 -12 -5z"/>
<path d="M2917 2379 c7 -7 15 -10 18 -7 3 3 -2 9 -12 12 -14 6 -15 5 -6 -5z"/>
<path d="M2279 2353 l-24 -28 28 24 c25 23 32 31 24 31 -2 0 -14 -12 -28 -27z"/>
<path d="M2455 2364 c-75 -39 -100 -101 -75 -190 14 -48 76 -138 89 -129 5 2
14 -2 21 -10 7 -8 9 -15 5 -15 -12 0 25 -39 60 -63 28 -20 29 -20 15 -2 -14
19 -14 19 10 0 14 -11 31 -28 38 -38 7 -9 17 -15 22 -12 5 3 15 -2 24 -11 9
-8 20 -13 24 -10 5 3 18 -1 28 -10 18 -14 17 -14 -6 -4 -23 10 -24 10 -6 -4
10 -9 23 -13 28 -10 5 3 18 -2 28 -11 11 -10 31 -17 44 -17 14 0 23 -4 21 -9
-3 -4 3 -7 12 -7 10 0 26 -3 36 -7 10 -4 17 -3 17 4 0 6 -6 11 -12 11 -7 0
-39 12 -70 28 l-57 27 17 35 c10 19 23 54 30 78 7 23 15 42 18 42 2 0 33 -13
69 -29 83 -38 147 -82 212 -144 28 -27 56 -46 62 -43 6 4 9 12 5 17 -3 5 -9 7
-14 4 -9 -6 -25 13 -25 30 0 6 -7 10 -15 10 -8 1 -14 6 -13 12 1 6 -8 19 -20
29 l-22 19 19 -22 c11 -13 15 -23 9 -23 -13 0 -44 35 -37 42 7 8 -75 64 -151
104 -55 29 -72 52 -35 47 22 -3 118 -48 168 -78 23 -14 42 -24 42 -21 0 5
-110 73 -171 105 -45 23 -46 25 -36 56 11 39 22 37 127 -14 36 -17 54 -23 41
-14 -51 37 -66 52 -51 50 8 -2 21 -6 28 -11 7 -4 15 -6 18 -3 5 5 -61 47 -74
47 -4 0 -18 9 -31 19 -16 12 -20 20 -12 25 22 14 173 -76 242 -144 75 -74 98
-112 110 -185 l8 -50 -4 50 c-6 73 -7 76 -49 133 -47 65 -131 130 -239 187
-78 41 -229 91 -297 98 -92 11 -241 -43 -259 -93 -8 -21 -10 -22 -10 -5 -2 54
64 112 144 126 36 6 37 7 9 8 -69 3 -146 -53 -164 -118 -12 -45 -13 -54 -1
-47 5 4 7 -2 4 -13 -3 -10 3 -33 12 -51 9 -17 14 -34 11 -37 -9 -9 -38 67 -43
113 -7 60 18 105 75 137 50 28 48 38 -3 11z m123 -110 c27 -6 30 -9 22 -29 -5
-13 -6 -25 -4 -28 3 -3 -33 -5 -80 -4 -90 2 -97 7 -70 45 16 23 66 29 132 16z
m-26 -82 c31 -6 35 -9 25 -22 -9 -11 -31 -15 -77 -15 -63 0 -89 12 -75 35 7
11 72 12 127 2z m-9 -106 c-4 -48 -17 -50 -58 -9 -27 27 -34 31 -25 14 14 -28
-4 -20 -20 8 -9 17 -5 18 48 17 57 -1 57 -1 55 -30z m-7 -58 c5 4 6 3 2 -2 -4
-5 -3 -15 3 -23 21 -25 3 -13 -22 14 -13 15 -17 22 -8 15 9 -6 20 -8 25 -4z
m424 -24 c0 -2 -9 0 -20 6 -11 6 -20 13 -20 16 0 2 9 0 20 -6 11 -6 20 -13 20
-16z m65 -38 c11 -8 16 -15 10 -15 -5 0 -23 11 -40 25 -31 26 -6 18 30 -10z"/>
<path d="M2623 2373 c9 -2 25 -2 35 0 9 3 1 5 -18 5 -19 0 -27 -2 -17 -5z"/>
<path d="M2778 2373 c7 -3 16 -2 19 1 4 3 -2 6 -13 5 -11 0 -14 -3 -6 -6z"/>
<path d="M2708 2363 c7 -3 16 -2 19 1 4 3 -2 6 -13 5 -11 0 -14 -3 -6 -6z"/>
<path d="M2156 2335 c9 -14 20 -25 25 -25 5 0 -1 11 -13 25 -12 14 -23 25 -25
25 -2 0 4 -11 13 -25z"/>
<path d="M2865 2350 c27 -12 43 -12 25 0 -8 5 -22 9 -30 9 -10 0 -8 -3 5 -9z"/>
<path d="M2920 2330 c8 -5 20 -10 25 -10 6 0 3 5 -5 10 -8 5 -19 10 -25 10 -5
0 -3 -5 5 -10z"/>
<path d="M3027 2329 c7 -7 15 -10 18 -7 3 3 -2 9 -12 12 -14 6 -15 5 -6 -5z"/>
<path d="M2246 2288 c-3 -18 -2 -49 3 -68 6 -29 8 -23 7 33 0 37 -1 67 -2 67
-1 0 -4 -15 -8 -32z"/>
<path d="M2972 2301 c-11 -7 -10 -9 3 -14 9 -4 13 -3 10 3 -8 13 1 13 28 -1
21 -10 21 -10 3 5 -23 18 -26 19 -44 7z"/>
<path d="M3055 2271 c6 -11 4 -13 -8 -8 -25 9 -21 2 11 -19 26 -17 27 -17 12
1 -8 10 -13 20 -12 22 2 3 0 8 -4 11 -4 4 -3 1 1 -7z"/>
<path d="M2146 2238 c-9 -39 -11 -126 -4 -122 7 5 14 -14 24 -68 4 -25 2 -38
-5 -38 -10 0 -47 -59 -43 -71 0 -4 -16 -20 -37 -37 l-39 -31 -11 27 c-6 15
-13 46 -15 70 -2 23 -6 45 -10 49 -11 12 -6 -54 9 -103 11 -38 12 -57 4 -84
-21 -69 -19 -66 -30 -50 -9 13 -10 13 -6 0 2 -8 -3 -24 -12 -35 -16 -20 -16
-20 7 -1 12 11 24 17 27 15 2 -3 -2 -29 -9 -59 -8 -30 -21 -91 -30 -135 -20
-93 -28 -111 -50 -109 -9 1 -14 -2 -11 -6 3 -5 -6 -25 -19 -45 -36 -52 -50
-101 -50 -175 0 -102 5 -118 51 -161 23 -21 47 -39 52 -39 6 0 8 -7 4 -16 -3
-8 -11 -13 -17 -11 -9 4 -287 198 -305 213 -8 7 22 33 32 27 6 -4 7 -1 3 6 -6
9 -12 9 -25 -3 -23 -21 -30 -20 -66 9 -29 24 -29 25 -10 40 11 9 14 13 6 9 -7
-3 -17 -1 -21 7 -11 16 -23 -44 -24 -119 l-1 -55 145 -105 c80 -58 168 -121
196 -141 28 -20 100 -72 160 -115 168 -122 232 -166 241 -166 11 0 48 60 49
80 1 22 20 54 40 71 16 13 16 12 5 -11 l-12 -25 20 24 c23 26 28 46 9 35 -7
-4 -3 2 8 14 12 11 24 26 26 32 2 8 11 8 33 0 54 -21 232 -25 305 -6 71 18
152 57 151 72 0 5 13 23 28 39 46 50 71 100 79 161 4 35 12 59 21 62 11 4 13
-4 8 -40 -3 -24 -9 -52 -13 -63 -5 -12 -4 -16 4 -11 6 3 16 31 22 61 10 49 15
55 43 64 79 23 162 63 205 99 43 35 49 37 72 25 31 -16 90 -16 110 0 9 7 47
54 85 105 68 92 69 92 104 86 54 -10 81 -22 81 -36 0 -10 2 -10 9 0 7 11 17
11 61 0 30 -7 55 -18 57 -23 2 -6 -15 -30 -37 -54 -22 -24 -40 -45 -40 -46 0
-4 87 -25 104 -25 8 0 38 27 66 61 60 72 67 114 23 148 -14 12 -36 24 -47 26
-33 7 -273 64 -359 85 -43 10 -81 21 -85 24 -3 3 -5 27 -5 52 l0 47 -20 -43
c-12 -24 -33 -50 -49 -59 -15 -9 -28 -20 -28 -24 0 -5 -4 -5 -10 -2 -5 3 -10
1 -10 -5 0 -6 -16 -18 -36 -26 -33 -14 -37 -14 -50 3 -13 17 -13 17 -14 -3 0
-18 -8 -22 -46 -28 -74 -10 -162 -7 -258 9 -116 19 -129 23 -121 42 4 13 3 13
-8 4 -17 -13 -72 -4 -88 15 -6 7 -18 10 -26 7 -12 -5 -15 -2 -10 10 4 11 2 14
-7 11 -9 -4 -16 7 -20 32 -4 20 -19 55 -33 78 -15 22 -25 42 -22 42 8 3 -98
82 -132 99 -19 9 -50 31 -69 49 -19 17 -27 22 -17 10 23 -28 21 -36 -5 -24
-13 6 -57 14 -98 18 l-75 7 -40 79 c-35 69 -40 87 -40 147 0 38 -1 69 -2 69
-2 0 -5 -10 -7 -22z m64 -250 c24 -26 17 -32 -45 -44 l-39 -7 15 24 c9 13 19
30 23 37 10 17 22 15 46 -10z m181 -71 c65 -47 126 -97 139 -112 8 -11 11 -16
5 -13 -5 3 -40 24 -78 47 -37 22 -74 41 -83 41 -8 0 -29 14 -47 31 l-32 31 40
-7 c22 -3 47 -12 56 -18z m-269 -253 l40 -41 -26 -7 c-21 -5 -32 0 -56 26 -42
47 -56 84 -39 104 11 14 14 12 27 -13 8 -15 32 -47 54 -69z m1352 -26 c-4 -13
-10 -25 -13 -28 -8 -6 -41 -58 -41 -63 0 -3 9 -7 21 -10 l20 -5 -21 -43 c-35
-68 -102 -123 -189 -156 -71 -26 -85 -28 -231 -28 -120 0 -168 4 -212 18 -53
16 -78 37 -44 37 7 0 20 9 27 20 12 17 19 19 46 11 42 -12 193 -16 268 -6 84
11 173 50 223 98 23 23 42 46 42 52 0 14 90 125 101 125 6 0 7 -10 3 -22z
m-750 -37 c4 -5 -4 -7 -16 -3 -16 4 -19 2 -13 -8 5 -9 4 -11 -4 -6 -6 4 -9 12
-6 17 8 12 32 12 39 0z m606 -81 c-18 -27 -34 -50 -37 -50 -2 0 -3 17 -1 38 2
29 9 40 33 54 17 9 32 15 34 12 2 -2 -11 -26 -29 -54z m-595 -6 c39 -20 73
-39 77 -43 5 -4 -15 -37 -42 -73 -49 -65 -60 -85 -40 -73 6 3 7 -1 3 -10 -4
-12 -8 -13 -13 -5 -5 8 -45 -38 -110 -124 -89 -117 -106 -134 -119 -123 -14
10 -14 10 -4 -4 11 -13 7 -24 -22 -65 -19 -27 -33 -55 -30 -61 2 -7 -1 -12 -6
-10 -6 1 -31 -29 -56 -68 -24 -38 -48 -69 -53 -68 -5 2 -7 -3 -5 -10 3 -6 1
-19 -4 -27 -8 -12 -19 -8 -65 24 -31 21 -56 42 -56 46 0 15 31 20 53 9 21 -10
21 -9 3 5 -10 8 -16 21 -14 28 7 16 -18 42 -27 28 -3 -6 -11 -10 -16 -10 -6 0
-7 5 -3 11 8 14 -14 28 -46 30 -23 0 -23 1 -5 8 17 7 14 10 -21 21 -23 7 -55
24 -70 39 -26 24 -27 26 -9 29 43 8 31 17 -18 14 -64 -3 -104 19 -144 79 -24
37 -28 52 -27 113 1 52 8 86 27 129 14 31 28 57 31 57 7 0 -15 -74 -24 -80
-16 -10 33 -91 80 -133 26 -24 80 -62 119 -84 l71 -42 73 55 c39 30 78 52 85
49 7 -3 10 0 7 6 -9 14 13 39 34 39 40 0 121 32 164 66 35 27 50 48 63 87 22
66 74 177 83 177 4 0 38 -16 76 -36z m-195 -1 c0 -10 -5 -13 -17 -8 -50 20
-49 20 -34 2 9 -11 10 -17 2 -17 -6 0 -11 5 -11 10 0 6 0 13 -1 18 0 8 43 21
54 15 4 -2 7 -11 7 -20z m25 17 c3 -5 1 -10 -4 -10 -6 0 -11 5 -11 10 0 6 2
10 4 10 3 0 8 -4 11 -10z m699 -40 c-5 -33 -14 -46 -38 -61 -43 -26 -50 -24
-28 9 11 15 30 44 43 64 13 20 25 35 27 34 1 -2 0 -22 -4 -46z m261 0 c3 -5 2
-10 -4 -10 -5 0 -13 5 -16 10 -3 6 -2 10 4 10 5 0 13 -4 16 -10z m40 -10 c3
-5 1 -10 -4 -10 -6 0 -11 5 -11 10 0 6 2 10 4 10 3 0 8 -4 11 -10z m-50 -20
c3 -5 2 -10 -4 -10 -5 0 -13 5 -16 10 -3 6 -2 10 4 10 5 0 13 -4 16 -10z
m-1555 -55 c0 -12 -7 -26 -16 -29 -12 -5 -15 -2 -10 10 3 8 6 25 6 35 0 11 5
17 10 14 6 -3 10 -17 10 -30z m1540 25 c0 -5 -2 -10 -4 -10 -3 0 -8 5 -11 10
-3 6 -1 10 4 10 6 0 11 -4 11 -10z m-13 -26 c-3 -3 -12 -4 -19 -1 -8 3 -5 6 6
6 11 1 17 -2 13 -5z m-57 -47 c0 -9 -36 9 -44 22 -4 5 5 4 19 -2 14 -7 25 -16
25 -20z m-1440 12 c0 -7 7 -17 16 -23 12 -9 14 -21 9 -49 -4 -22 -11 -34 -18
-30 -6 4 -8 -3 -5 -18 3 -13 3 -35 -1 -48 -6 -24 -8 -23 -48 23 -57 65 -59 79
-12 121 40 36 59 44 59 24z m1400 -25 c0 -2 -9 0 -20 6 -11 6 -20 13 -20 16 0
2 9 0 20 -6 11 -6 20 -13 20 -16z m45 -14 c13 -6 15 -9 5 -9 -8 0 -22 4 -30 9
-18 12 -2 12 25 0z m-120 -9 c8 -15 -74 -77 -133 -100 -29 -12 -51 -17 -47
-11 3 5 12 10 18 10 16 0 50 57 43 69 -4 5 13 16 36 24 51 18 75 20 83 8z m76
-6 c19 -8 27 -14 19 -14 -14 0 -72 28 -59 29 4 0 22 -7 40 -15z m-1832 -126
c-19 -16 -30 -29 -25 -29 4 0 22 11 38 25 28 24 32 25 52 10 11 -8 32 -23 46
-33 227 -157 260 -184 260 -208 0 -46 41 -104 95 -131 16 -9 57 -16 90 -17 52
-1 68 -6 118 -39 31 -22 57 -45 57 -53 0 -22 -33 -84 -45 -84 -6 0 -29 13 -51
30 -21 16 -127 92 -234 169 -261 187 -253 181 -350 253 -47 35 -86 70 -88 78
-2 8 -1 34 3 58 l6 42 31 -21 31 -22 -34 -28z m1111 36 c-7 -9 -15 -13 -18
-10 -3 2 1 11 8 20 7 9 15 13 18 10 3 -2 -1 -11 -8 -20z m-94 -121 c-36 -48
-66 -84 -66 -79 0 11 123 175 128 171 2 -3 -26 -44 -62 -92z m400 -20 c-9 -67
-69 -159 -121 -186 -12 -6 -5 6 17 28 56 61 86 111 94 160 3 24 9 44 11 44 3
0 3 -21 -1 -46z m-36 -21 c-11 -17 -11 -17 -6 0 3 10 6 24 7 30 0 9 2 9 5 0 3
-7 0 -20 -6 -30z m-20 -52 c-5 -11 -15 -23 -22 -27 -7 -5 -8 -2 -3 7 21 37 44
55 25 20z m-497 -116 c-3 -9 -8 -14 -10 -11 -3 3 -2 9 2 15 9 16 15 13 8 -4z
m-306 -1 c-3 -3 -12 -4 -19 -1 -8 3 -5 6 6 6 11 1 17 -2 13 -5z m713 -8 c0 -2
-7 -7 -16 -10 -8 -3 -12 -2 -9 4 6 10 25 14 25 6z"/>
<path d="M2334 1161 c7 -11 46 -35 46 -28 0 3 -12 12 -26 22 -15 9 -23 12 -20
6z"/>
<path d="M2055 990 c3 -5 11 -10 16 -10 6 0 7 5 4 10 -3 6 -11 10 -16 10 -6 0
-7 -4 -4 -10z"/>
<path d="M2270 816 c0 -2 8 -10 18 -17 15 -13 16 -12 3 4 -13 16 -21 21 -21
13z"/>
<path d="M1971 1264 c0 -11 3 -14 6 -6 3 7 2 16 -1 19 -3 4 -6 -2 -5 -13z"/>
<path d="M3143 2214 c9 -11 15 -23 12 -26 -3 -3 5 -13 17 -24 23 -19 23 -19 5
2 -9 11 -15 23 -12 26 3 3 -5 13 -17 24 -23 19 -23 19 -5 -2z"/>
<path d="M3225 2210 c10 -11 20 -20 23 -20 3 0 -3 9 -13 20 -10 11 -20 20 -23
20 -3 0 3 -9 13 -20z"/>
<path d="M3110 2216 c0 -2 8 -10 18 -17 15 -13 16 -12 3 4 -13 16 -21 21 -21
13z"/>
<path d="M3195 2170 c11 -12 20 -28 21 -36 1 -8 16 -30 32 -48 39 -45 65 -115
60 -165 -2 -21 0 -37 4 -35 30 19 -14 166 -61 208 -11 11 -21 24 -21 29 0 6
12 0 28 -14 15 -13 5 0 -23 29 -47 49 -79 75 -40 32z"/>
<path d="M3280 2165 c13 -14 26 -25 28 -25 3 0 -5 11 -18 25 -13 14 -26 25
-28 25 -3 0 5 -11 18 -25z"/>
<path d="M2024 2104 c-8 -20 -14 -40 -12 -45 2 -5 10 11 19 36 20 54 14 60 -7
9z"/>
<path d="M2279 2125 c17 -33 31 -51 31 -40 0 6 -10 21 -21 35 -13 17 -17 18
-10 5z"/>
<path d="M3335 2110 c10 -11 20 -20 23 -20 3 0 -3 9 -13 20 -10 11 -20 20 -23
20 -3 0 3 -9 13 -20z"/>
<path d="M3648 2103 c-24 -4 -28 -9 -28 -37 0 -18 7 -41 15 -52 25 -33 17 -51
-10 -19 -13 17 -24 36 -25 43 0 6 -5 12 -11 12 -6 0 -8 -7 -5 -17 4 -10 4 -14
0 -11 -3 4 -25 -21 -49 -55 -39 -58 -42 -66 -39 -122 2 -58 4 -62 52 -106 87
-80 232 -131 288 -101 13 7 26 7 39 1 19 -10 19 -10 1 5 -18 14 -18 16 5 48
12 18 45 59 72 91 37 43 50 67 49 88 -3 111 -218 251 -354 232z m87 -27 l30
-13 -35 -8 c-19 -4 -41 -16 -48 -27 -18 -25 -42 -7 -42 33 0 26 3 29 33 29 17
-1 46 -7 62 -14z m-22 -92 c-4 -11 -9 -12 -19 -4 -7 7 -10 18 -7 26 4 11 9 12
19 4 7 -7 10 -18 7 -26z m244 -53 c35 -40 31 -70 -9 -66 -13 1 -32 3 -42 4
-18 1 -18 2 4 25 23 26 23 33 -7 76 -17 25 -17 25 2 11 11 -8 34 -31 52 -50z
m-272 29 c3 -5 -1 -10 -9 -10 -9 0 -16 5 -16 10 0 6 4 10 9 10 6 0 13 -4 16
-10z m98 -19 c30 -16 36 -31 11 -31 -20 0 -66 35 -57 44 4 3 9 5 12 3 3 -1 18
-9 34 -16z m57 -35 c0 -3 -4 -8 -10 -11 -5 -3 -10 -1 -10 4 0 6 5 11 10 11 6
0 10 -2 10 -4z m46 -15 c-10 -11 -25 -17 -33 -14 -14 5 -13 8 3 20 10 7 24 13
32 13 12 0 12 -4 -2 -19z m-115 -8 c13 -16 12 -17 -3 -4 -10 7 -18 15 -18 17
0 8 8 3 21 -13z m89 -35 c0 -13 -23 -5 -28 10 -2 7 2 10 12 6 9 -3 16 -11 16
-16z m130 -6 c0 -10 -59 -21 -86 -16 -55 10 -39 24 26 21 33 -1 60 -3 60 -5z"/>
<path d="M3064 2091 c4 -6 16 -16 28 -22 15 -8 18 -8 14 0 -4 6 -16 16 -28 22
-15 8 -18 8 -14 0z"/>
<path d="M3595 2079 c-4 -6 -5 -12 -2 -15 2 -3 7 2 10 11 7 17 1 20 -8 4z"/>
<path d="M3370 2073 c0 -6 8 -17 18 -24 16 -13 16 -13 2 6 -8 11 -16 22 -17
24 -2 2 -3 0 -3 -6z"/>
<path d="M2340 2035 c19 -19 36 -35 39 -35 3 0 -10 16 -29 35 -19 19 -36 35
-39 35 -3 0 10 -16 29 -35z"/>
<path d="M3290 2066 c0 -2 8 -10 18 -17 15 -13 16 -12 3 4 -13 16 -21 21 -21
13z"/>
<path d="M3120 2056 c0 -2 8 -10 18 -17 15 -13 16 -12 3 4 -13 16 -21 21 -21
13z"/>
<path d="M3185 2000 c10 -11 20 -20 23 -20 3 0 -3 9 -13 20 -10 11 -20 20 -23
20 -3 0 3 -9 13 -20z"/>
<path d="M3337 1970 c3 -25 7 -47 9 -49 8 -9 2 55 -6 74 -6 13 -7 5 -3 -25z"/>
<path d="M3140 1926 c0 -2 8 -10 18 -17 15 -13 16 -12 3 4 -13 16 -21 21 -21
13z"/>
<path d="M1972 1890 c0 -14 2 -19 5 -12 2 6 2 18 0 25 -3 6 -5 1 -5 -13z"/>
<path d="M3333 1883 c-3 -10 -8 -22 -10 -28 -3 -5 3 -1 11 9 16 20 21 36 11
36 -3 0 -8 -8 -12 -17z"/>
<path d="M3239 1843 c-13 -16 -12 -17 4 -4 16 13 21 21 13 21 -2 0 -10 -8 -17
-17z"/>
<path d="M2903 1804 c0 -16 6 -17 25 -5 11 6 9 9 -5 13 -12 3 -20 0 -20 -8z"/>
<path d="M3440 1812 c0 -7 -17 -31 -37 -54 -36 -40 -36 -41 -6 -18 35 28 60
66 50 77 -4 3 -7 1 -7 -5z"/>
<path d="M3240 1795 c-14 -8 -20 -14 -14 -15 5 0 19 7 30 15 24 18 16 19 -16
0z"/>
<path d="M2940 1790 c-11 -7 -5 -8 20 -4 43 8 51 14 19 14 -13 0 -31 -5 -39
-10z"/>
<path d="M3168 1793 c7 -3 16 -2 19 1 4 3 -2 6 -13 5 -11 0 -14 -3 -6 -6z"/>
<path d="M2687 1779 c7 -7 15 -10 18 -7 3 3 -2 9 -12 12 -14 6 -15 5 -6 -5z"/>
<path d="M2985 1780 c-16 -4 13 -5 65 -2 52 3 97 6 99 8 8 7 -134 2 -164 -6z"/>
<path d="M3188 1773 c7 -3 16 -2 19 1 4 3 -2 6 -13 5 -11 0 -14 -3 -6 -6z"/>
<path d="M2787 1739 c7 -7 15 -10 18 -7 3 3 -2 9 -12 12 -14 6 -15 5 -6 -5z"/>
<path d="M2938 1693 c7 -3 16 -2 19 1 4 3 -2 6 -13 5 -11 0 -14 -3 -6 -6z"/>
<path d="M1734 1579 c-3 -6 -2 -15 3 -20 5 -5 9 -1 9 11 0 23 -2 24 -12 9z"/>
<path d="M1780 1536 c0 -2 8 -10 18 -17 15 -13 16 -12 3 4 -13 16 -21 21 -21
13z"/>
<path d="M1840 1496 c0 -2 8 -10 18 -17 15 -13 16 -12 3 4 -13 16 -21 21 -21
13z"/>
<path d="M3767 1385 c9 -19 18 -33 21 -31 4 5 -26 66 -33 66 -3 0 3 -16 12
-35z"/>
<path d="M1555 1379 c-4 -6 -5 -12 -2 -15 2 -3 7 2 10 11 7 17 1 20 -8 4z"/>
<path d="M1670 1236 c0 -2 8 -10 18 -17 15 -13 16 -12 3 4 -13 16 -21 21 -21
13z"/>
<path d="M1770 1166 c0 -2 8 -10 18 -17 15 -13 16 -12 3 4 -13 16 -21 21 -21
13z"/>
<path d="M3000 1021 c0 -5 -23 -35 -51 -65 -28 -31 -47 -56 -42 -56 11 0 62
54 92 98 12 17 18 32 12 32 -6 0 -11 -4 -11 -9z"/>
<path d="M2319 703 c-13 -16 -12 -17 4 -4 16 13 21 21 13 21 -2 0 -10 -8 -17
-17z"/>
<path d="M318 222 c17 -8 32 -19 32 -23 0 -5 1039 -9 2358 -8 2265 1 2359 1
2407 19 49 18 -6 18 -2377 19 -1334 1 -2432 2 -2440 4 -7 2 2 -3 20 -11z"/>
</g>
</svg>
