<svg xmlns="http://www.w3.org/2000/svg" viewBox="0 0 1460 920" font-family="-apple-system, BlinkMacSystemFont, 'Segoe UI', Roboto, Helvetica, Arial, sans-serif, 'Apple Color Emoji', 'Segoe UI Emoji', 'Segoe UI Symbol'">

  <style>
    @import url('https://fonts.googleapis.com/css2?family=Roboto:wght@700&amp;display=swap');

    .logo-text {
      font-family: 'Roboto';
      font-weight: 700;
      font-size: 48px;
    }
  </style>
  
  <rect width="1460" height="920" fill="#F3F5F8"></rect>
  
  <g id="inputs" font-weight="700" text-anchor="middle">
    
    <g id="in-ifc">
      <rect x="60" y="140" width="190" height="56" rx="12" fill="#FFFFFF" stroke="#C4C4C4" stroke-width="1.5"></rect>
      <rect x="60" y="140" width="8" height="56" rx="4" fill="#0780D4"></rect>
      <text x="159" y="176" fill="#060729" font-size="24">IFC</text>
    </g>
    
    <g id="in-rvt">
      <rect x="60" y="259" width="190" height="56" rx="12" fill="#FFFFFF" stroke="#C4C4C4" stroke-width="1.5"></rect>
      <rect x="60" y="259" width="8" height="56" rx="4" fill="#0780D4"></rect>
      <text x="159" y="295" fill="#060729" font-size="22">RVT / RFA</text>
    </g>
    
    <g id="in-step">
      <rect x="60" y="378" width="190" height="56" rx="12" fill="#FFFFFF" stroke="#C4C4C4" stroke-width="1.5"></rect>
      <rect x="60" y="378" width="8" height="56" rx="4" fill="#0780D4"></rect>
      <text x="159" y="414" fill="#060729" font-size="24">STEP</text>
    </g>
    
    <g id="in-nwd">
      <rect x="60" y="497" width="190" height="56" rx="12" fill="#FFFFFF" stroke="#C4C4C4" stroke-width="1.5"></rect>
      <rect x="60" y="497" width="8" height="56" rx="4" fill="#0780D4"></rect>
      <text x="159" y="533" fill="#060729" font-size="24">NWD</text>
    </g>
    
    <g id="in-imodel">
      <rect x="60" y="616" width="190" height="56" rx="12" fill="#FFFFFF" stroke="#C4C4C4" stroke-width="1.5"></rect>
      <rect x="60" y="616" width="8" height="56" rx="4" fill="#0780D4"></rect>
      <text x="159" y="652" fill="#060729" font-size="24">iModel®</text>
    </g>
    
    <g id="in-rvm">
      <rect x="60" y="735" width="190" height="56" rx="12" fill="#FFFFFF" stroke="#C4C4C4" stroke-width="1.5"></rect>
      <rect x="60" y="735" width="8" height="56" rx="4" fill="#0780D4"></rect>
      <text x="159" y="771" fill="#060729" font-size="24">RVM</text>
    </g>
  </g>

  
  <g fill="none" stroke="#0780D4" stroke-width="5" stroke-linecap="round" opacity="0.85">
    <path d="M250 168 C420 168 430 440 560 444"></path>
    <path d="M250 287 C420 287 440 442 560 445"></path>
    <path d="M250 406 C430 406 450 444 560 446"></path>
    <path d="M250 525 C430 525 450 448 560 447"></path>
    <path d="M250 644 C420 644 440 452 560 448"></path>
    <path d="M250 763 C420 763 430 456 560 449"></path>
  </g>
  <g fill="#0780D4">
    <path d="M556 428 L596 446 L556 464 Z"></path>
  </g>

  
  <g id="engine">
    
    <rect x="610" y="190" width="350" height="520" rx="34" fill="#060729"></rect>
    <rect x="610" y="190" width="350" height="520" rx="34" fill="none" stroke="#0780D4" stroke-width="3" opacity="0.65"></rect>

	<g transform="translate(720,230)">
      <path fill="#7a7a7a" d="M36.11,67.88L0,0,29.4,17.41l19.93,1.07,18.55-9.54,32.22,19.55,14.74-5.65,17.87,26.65-23.13,12.06-10.15,19.85-34.66,14.89-10.84-26.34-17.79-2.06h-.03Z"/>
      <path fill="#ffffff" d="M125.65,47.88l-12.26-18.56-.98,.34h0l-13.16,4.53-31.56-19-15.79,8.36-22.41-.67L14.77,13.53h0l-4.33-2.78,27.28,50.94,.79,1.32,18.72,2.57,9.69,23.62,15.49-6.87,13.85-5.54,9.18-19.29,20.2-9.62h.01Zm-41.85-2.54l18.92,11.67-7.37,15.48s-11.55-27.15-11.55-27.15Zm-18.36-2.69l12.35,.55-20.09,19.76-15.47-2.14,12.73-18.89,10.44,.71m15.52-.66h0v.02h0v-.02Zm40.8,4.82l-17.2,8.19-20.51-12.65,28.13-9.75,.16-.05,9.42,14.27h0Zm-40.99-6.16l-13.77-.61,1.91-21.01,27.13,16.32-15.27,5.3Zm-16.26-2.73l-10.2-12.61,11.92-6.32-1.72,18.92h0Zm-12.92-11.69l10.97,13.55-7.82-.53-21.07-13.55s17.92,.53,17.92,.53Zm-33.91-7.64l34.76,22.36-12.69,18.84L17.66,18.57h-.02Zm63.72,61.31l-13.02,5.78-8.61-20.96,20.71-20.37,13.05,30.69-12.14,4.86h0Z"/>
    </g>
    <g transform="translate(716,260) scale(0.60)">
          <polygon fill="#ffffff" points="41.57 171.24 28.74 171.24 21.07 185.2 13.56 171.24 .57 171.24 13.39 193.7 0 217.13 12.9 217.13 21.07 202.35 29.23 217.13 42.14 217.13 28.74 193.7 41.57 171.24"/>
          <path fill="#ffffff" d="M80.76,176.47c-1.63-1.96-3.76-3.51-6.21-4.57s-5.31-1.63-8.49-1.63-6.21,.57-8.82,1.71-4.82,2.78-6.7,4.9c-1.8,2.12-3.18,4.57-4.16,7.51-.98,2.94-1.47,6.04-1.47,9.55v1.71c0,3.1,.49,5.96,1.55,8.66,.98,2.69,2.45,5.06,4.41,7.1s4.33,3.67,7.1,4.82,5.96,1.71,9.47,1.71c2.86,0,5.47-.41,7.76-1.55,2.29-.82,4.25-1.8,5.88-3.1,1.71-1.31,2.94-2.61,3.92-4l-5.88-6.45c-1.39,1.71-3.02,3.02-4.9,3.92-1.88,.9-3.84,1.31-6.04,1.31-1.8,0-3.35-.24-4.74-.9-1.39-.57-2.53-1.47-3.51-2.61-.9-1.14-1.71-2.45-2.2-4-.28-.87-.47-1.81-.59-2.78h28.76v-5.06c0-3.35-.41-6.37-1.31-9.15-.82-2.78-2.12-5.14-3.84-7.1Zm-6.7,13.15h-16.8c.07-.47,.14-.94,.22-1.39,.33-1.71,.82-3.18,1.55-4.49,.73-1.22,1.63-2.2,2.78-2.94s2.53-1.06,4.08-1.06c1.88,0,3.35,.41,4.57,1.22,1.22,.73,2.12,1.8,2.69,3.18,.57,1.39,.9,2.86,.9,4.57v.9h0Z"/>
          <path fill="#ffffff" d="M128.13,176.96c-1.8-2.12-4-3.76-6.7-4.9-2.69-1.22-5.72-1.8-9.15-1.8s-6.53,.57-9.15,1.8c-2.69,1.22-4.9,2.78-6.7,4.9-1.88,2.12-3.18,4.57-4.16,7.43-.9,2.86-1.39,5.96-1.39,9.31v.9c0,3.35,.49,6.45,1.39,9.31,.98,2.86,2.37,5.31,4.16,7.43s4.08,3.76,6.7,4.9c2.69,1.14,5.72,1.71,9.15,1.71s6.53-.57,9.15-1.71c2.69-1.22,4.9-2.78,6.7-4.9,1.8-2.12,3.18-4.57,4.16-7.43,.9-2.86,1.39-5.96,1.39-9.31v-.9c0-3.43-.41-6.45-1.39-9.31-.9-2.86-2.29-5.31-4.16-7.43Zm-6.53,17.64c0,1.96-.24,3.76-.57,5.39s-.82,3.1-1.55,4.41c-.73,1.22-1.63,2.2-2.86,2.94s-2.69,1.06-4.33,1.06c-1.71,0-3.18-.33-4.41-1.06s-2.2-1.71-2.94-2.94c-.65-1.31-1.22-2.78-1.55-4.41-.33-1.71-.49-3.43-.49-5.39v-.9c0-1.8,.16-3.59,.57-5.23,.33-1.63,.82-3.1,1.55-4.41s1.71-2.29,2.86-3.02,2.61-1.06,4.33-1.06,3.1,.33,4.33,1.06c1.14,.73,2.12,1.71,2.86,3.02s1.31,2.78,1.63,4.41c.41,1.63,.57,3.35,.57,5.23v.9Z"/>
          <polygon fill="#ffffff" points="181.61 171.24 167.16 171.16 155.4 185.12 153.11 188.08 153.11 151.97 141.11 151.97 141.11 217.13 153.11 217.13 153.11 203.05 157.45 198.61 169.12 217.05 183 217.13 165.19 190.27 181.61 171.24"/>
          <path fill="#ffffff" d="M193.46,153.11c-2.04,0-3.67,.57-4.9,1.71s-1.88,2.61-1.88,4.41,.65,3.27,1.88,4.41c1.22,1.14,2.86,1.71,4.9,1.71s3.67-.57,4.9-1.71c1.22-1.14,1.88-2.61,1.88-4.41s-.65-3.27-1.88-4.41-2.86-1.71-4.9-1.71Z"/>
          <rect fill="#ffffff" x="187.41" y="171.24" width="12.09" height="45.81"/>
          <path fill="#ffffff" d="M232.08,207.82c-.41,.08-.9,.16-1.55,.24s-1.31,.08-2.04,.08c-1.06,0-1.88-.16-2.61-.41-.65-.24-1.22-.73-1.55-1.47-.33-.65-.49-1.71-.49-3.02v-23.36h7.76v-8.66h-7.76v-11.35h-12v11.35h-6.53v8.66h6.53v24.66c0,3.18,.49,5.8,1.55,7.76,1.06,1.96,2.53,3.43,4.49,4.33s4.33,1.31,6.94,1.31c1.47,0,2.78-.16,4-.33,1.22-.24,2.29-.49,3.35-.82l-.08-8.98h0Z"/>
    </g>    
    <text x="785" y="440" fill="#7a7a7a" font-size="34" font-weight="700" text-anchor="middle">Data Engine</text>
    
    <g id="step-parse">
      <rect x="620" y="520" width="96" height="170" rx="12" fill="#14163A" stroke="#1F4E72" stroke-width="1.5"></rect>
      <circle cx="668" cy="520" r="16" fill="#0780D4"></circle>
      <text x="668" y="527" fill="#FFFFFF" font-size="18" font-weight="700" text-anchor="middle">1</text>
      
      <g transform="translate(668,580)" stroke="#38A8E8" stroke-width="2.4" fill="none" stroke-linejoin="round" stroke-linecap="round">
        <path d="M-15 -18 L3 -18 L12 -9 L12 15 L-15 15 Z"></path>
        <path d="M3 -18 L3 -9 L12 -9"></path>
        <path d="M-10 -5 L7 -5 M-10 1 L7 1 M-10 7 L0 7"></path>
        <circle cx="11" cy="12" r="7"></circle>
        <path d="M16 17 L22 23"></path>
      </g>
      <text x="668" y="650" fill="#FFFFFF" font-size="16" font-weight="700" text-anchor="middle">Parse</text>
    </g>

    
    <g id="step-normalize">
      <rect x="737" y="520" width="96" height="170" rx="12" fill="#14163A" stroke="#1F4E72" stroke-width="1.5"></rect>
      <circle cx="785" cy="520" r="16" fill="#0780D4"></circle>
      <text x="785" y="527" fill="#FFFFFF" font-size="18" font-weight="700" text-anchor="middle">2</text>
      
      <g transform="translate(785,580)">
        <g stroke="#38A8E8" stroke-width="2.4" fill="none" stroke-linejoin="round">
          <rect x="-16" y="-16" width="26" height="26" rx="2"></rect>
          <path d="M-16 -7 L10 -7 M-16 2 L10 2 M-7 -16 L-7 10 M1 -16 L1 10"></path>
        </g>
        <circle cx="13" cy="12" r="9" fill="#38A8E8"></circle>
        <path d="M9 12 L12 15 L17 8" stroke="#060729" stroke-width="2.6" fill="none" stroke-linecap="round" stroke-linejoin="round"></path>
      </g>
      <text x="785" y="650" fill="#FFFFFF" font-size="16" font-weight="700" text-anchor="middle">Normalize</text>
    </g>

    
    <g id="step-optimize">
      <rect x="854" y="520" width="96" height="170" rx="12" fill="#14163A" stroke="#1F4E72" stroke-width="1.5"></rect>
      <circle cx="902" cy="520" r="16" fill="#0780D4"></circle>
      <text x="902" y="527" fill="#FFFFFF" font-size="18" font-weight="700" text-anchor="middle">3</text>
      
      <g transform="translate(905,580)" stroke="#38A8E8" stroke-width="2.4" fill="none" stroke-linejoin="round" stroke-linecap="round">
        <path d="M-6 9 A15 15 0 1 1 16 9"></path>
        <path d="M5 7 L0 -5"></path>
        <path d="M-22 -3 L-12 -3 M-25 3 L-13 3 M-22 9 L-13 9"></path>
      </g>
      <circle cx="910" cy="575" r="2.6" fill="#38A8E8"></circle>
      <text x="902" y="650" fill="#FFFFFF" font-size="16" font-weight="700" text-anchor="middle">Optimize</text>
    </g>

    
    <g fill="none" stroke="#38A8E8" stroke-width="3" stroke-linecap="round" stroke-linejoin="round">
      <path d="M719 575 L731 575 M727 570 L733 575 L727 580"></path>
      <path d="M836 575 L848 575 M844 570 L850 575 L844 580"></path>
    </g>
  </g>

  
  <g fill="#0780D4">
    <path d="M990 340 L1040 340 L1040 328 L1072 346 L1040 364 L1040 352 L990 352 Z"></path>
    <path d="M990 464 L1040 464 L1040 452 L1072 470 L1040 488 L1040 476 L990 476 Z"></path>
    <path d="M990 588 L1040 588 L1040 576 L1072 594 L1040 612 L1040 600 L990 600 Z"></path>
  </g>

  
  <g id="outputs">
    <rect x="1090" y="200" width="350" height="500" rx="22" fill="#FFFFFF" stroke="#C4C4C4" stroke-width="1.5"></rect>
    <text x="1265" y="250" fill="#0780D4" font-size="22" font-weight="700" letter-spacing="1" text-anchor="middle">OPEN OUTPUTS</text>

	<g id="out-glb">
      <rect x="1112" y="296" width="310" height="100" rx="14" fill="#F7F9FB" stroke="#C4C4C4" stroke-width="1.2"></rect>
      <circle cx="1160" cy="346" r="28" fill="#E4F1FB"></circle>
      <g transform="translate(1160,346)" stroke="#0780D4" stroke-width="3.5" fill="none" stroke-linejoin="round">
        <path d="M0 -16 L14 -8 L14 8 L0 16 L-14 8 L-14 -8 Z"></path>
        <path d="M0 -16 L0 0 L14 -8 M0 0 L-14 -8"></path>
      </g>
      <text x="1205" y="341" fill="#060729" font-size="26" font-weight="700">GLB</text>
	  <text x="1205" y="366" font-size="18" fill="#7a7a7a">open transmission format</text>
    </g>
    
    <g id="out-json">
      <rect x="1112" y="420" width="310" height="100" rx="14" fill="#F7F9FB" stroke="#C4C4C4" stroke-width="1.2"></rect>
      <circle cx="1160" cy="470" r="28" fill="#E4F1FB"></circle>
      <text x="1160" y="477" fill="#0780D4" font-size="22" font-weight="700" text-anchor="middle">{ }</text>
      <text x="1205" y="465" fill="#060729" font-size="26" font-weight="700">JSON</text>
	  <text x="1205" y="490" font-size="18" fill="#7a7a7a">model metadata</text>
    </g>
    
    <g id="out-xkt">
      <rect x="1112" y="544" width="310" height="100" rx="14" fill="#F7F9FB" stroke="#C4C4C4" stroke-width="1.2"></rect>
      <circle cx="1160" cy="594" r="28" fill="#E4F1FB"></circle>
      <g transform="translate(1160,594)" stroke="#0780D4" stroke-width="3.5" fill="none" stroke-linejoin="round">
        <path d="M0 -15 L16 -6 L0 3 L-16 -6 Z"></path>
        <path d="M-16 3 L0 12 L16 3"></path>
        <path d="M-16 12 L0 21 L16 12"></path>
      </g>
      <text x="1205" y="589" fill="#060729" font-size="26" font-weight="700">XKT</text>
	  <text x="1205" y="614" font-size="18" fill="#7a7a7a">optimized xeokit format</text>
    </g>
  </g>

  
  <g transform="translate(590,-48) scale(0.50)">
    <polygon fill="#060729" points="41.57 171.24 28.74 171.24 21.07 185.2 13.56 171.24 .57 171.24 13.39 193.7 0 217.13 12.9 217.13 21.07 202.35 29.23 217.13 42.14 217.13 28.74 193.7 41.57 171.24"/>
    <path fill="#060729" d="M80.76,176.47c-1.63-1.96-3.76-3.51-6.21-4.57s-5.31-1.63-8.49-1.63-6.21,.57-8.82,1.71-4.82,2.78-6.7,4.9c-1.8,2.12-3.18,4.57-4.16,7.51-.98,2.94-1.47,6.04-1.47,9.55v1.71c0,3.1,.49,5.96,1.55,8.66,.98,2.69,2.45,5.06,4.41,7.1s4.33,3.67,7.1,4.82,5.96,1.71,9.47,1.71c2.86,0,5.47-.41,7.76-1.55,2.29-.82,4.25-1.8,5.88-3.1,1.71-1.31,2.94-2.61,3.92-4l-5.88-6.45c-1.39,1.71-3.02,3.02-4.9,3.92-1.88,.9-3.84,1.31-6.04,1.31-1.8,0-3.35-.24-4.74-.9-1.39-.57-2.53-1.47-3.51-2.61-.9-1.14-1.71-2.45-2.2-4-.28-.87-.47-1.81-.59-2.78h28.76v-5.06c0-3.35-.41-6.37-1.31-9.15-.82-2.78-2.12-5.14-3.84-7.1Zm-6.7,13.15h-16.8c.07-.47,.14-.94,.22-1.39,.33-1.71,.82-3.18,1.55-4.49,.73-1.22,1.63-2.2,2.78-2.94s2.53-1.06,4.08-1.06c1.88,0,3.35,.41,4.57,1.22,1.22,.73,2.12,1.8,2.69,3.18,.57,1.39,.9,2.86,.9,4.57v.9h0Z"/>
    <path fill="#060729" d="M128.13,176.96c-1.8-2.12-4-3.76-6.7-4.9-2.69-1.22-5.72-1.8-9.15-1.8s-6.53,.57-9.15,1.8c-2.69,1.22-4.9,2.78-6.7,4.9-1.88,2.12-3.18,4.57-4.16,7.43-.9,2.86-1.39,5.96-1.39,9.31v.9c0,3.35,.49,6.45,1.39,9.31,.98,2.86,2.37,5.31,4.16,7.43s4.08,3.76,6.7,4.9c2.69,1.14,5.72,1.71,9.15,1.71s6.53-.57,9.15-1.71c2.69-1.22,4.9-2.78,6.7-4.9,1.8-2.12,3.18-4.57,4.16-7.43,.9-2.86,1.39-5.96,1.39-9.31v-.9c0-3.43-.41-6.45-1.39-9.31-.9-2.86-2.29-5.31-4.16-7.43Zm-6.53,17.64c0,1.96-.24,3.76-.57,5.39s-.82,3.1-1.55,4.41c-.73,1.22-1.63,2.2-2.86,2.94s-2.69,1.06-4.33,1.06c-1.71,0-3.18-.33-4.41-1.06s-2.2-1.71-2.94-2.94c-.65-1.31-1.22-2.78-1.55-4.41-.33-1.71-.49-3.43-.49-5.39v-.9c0-1.8,.16-3.59,.57-5.23,.33-1.63,.82-3.1,1.55-4.41s1.71-2.29,2.86-3.02,2.61-1.06,4.33-1.06,3.1,.33,4.33,1.06c1.14,.73,2.12,1.71,2.86,3.02s1.31,2.78,1.63,4.41c.41,1.63,.57,3.35,.57,5.23v.9Z"/>
    <polygon fill="#060729" points="181.61 171.24 167.16 171.16 155.4 185.12 153.11 188.08 153.11 151.97 141.11 151.97 141.11 217.13 153.11 217.13 153.11 203.05 157.45 198.61 169.12 217.05 183 217.13 165.19 190.27 181.61 171.24"/>
    <path fill="#060729" d="M193.46,153.11c-2.04,0-3.67,.57-4.9,1.71s-1.88,2.61-1.88,4.41,.65,3.27,1.88,4.41c1.22,1.14,2.86,1.71,4.9,1.71s3.67-.57,4.9-1.71c1.22-1.14,1.88-2.61,1.88-4.41s-.65-3.27-1.88-4.41-2.86-1.71-4.9-1.71Z"/>
    <rect fill="#060729" x="187.41" y="171.24" width="12.09" height="45.81"/>
    <path fill="#060729" d="M232.08,207.82c-.41,.08-.9,.16-1.55,.24s-1.31,.08-2.04,.08c-1.06,0-1.88-.16-2.61-.41-.65-.24-1.22-.73-1.55-1.47-.33-.65-.49-1.71-.49-3.02v-23.36h7.76v-8.66h-7.76v-11.35h-12v11.35h-6.53v8.66h6.53v24.66c0,3.18,.49,5.8,1.55,7.76,1.06,1.96,2.53,3.43,4.49,4.33s4.33,1.31,6.94,1.31c1.47,0,2.78-.16,4-.33,1.22-.24,2.29-.49,3.35-.82l-.08-8.98h0Z"/>
  </g> 
  <text x="730" y="60" fill="#7a7a7a" font-size="44" font-weight="700" text-anchor="start">Data Engine</text>
</svg>