<?xml version="1.0" encoding="UTF-8"?>
<svg id="Layer_2" data-name="Layer 2" xmlns="http://www.w3.org/2000/svg" viewBox="0 0 765.79 151.65">
  <defs>
    <style>
      .cls-1 {
        fill: #fff;
      }

      .cls-2 {
        fill: #ff8b17;
      }

      .cls-3 {
        fill: #100521;
      }
    </style>
  </defs>
  <g id="Layer_2-2" data-name="Layer 2">
    <g>
      <g>
        <g>
          <g>
            <path class="cls-2" d="M47.22,88.71L0,0,38.48,22.74l26.1,1.4,24.28-12.52,42.19,25.54,19.24-7.42,23.37,34.84-30.22,15.81-13.29,26.03-45.34,19.52-14.2-34.42s-23.37-2.8-23.37-2.8Z"/>
            <polygon class="cls-1" points="68.23 34.21 37.53 33.22 17.4 20.51 19.26 17.55 38.59 29.75 68.34 30.71 68.23 34.21"/>
            <rect class="cls-1" x="42.93" y="4.67" width="3.5" height="62.67" transform="translate(-9.79 54.06) rotate(-57.21)"/>
            <polygon class="cls-1" points="75.89 85.76 51.16 82.42 38.35 59.41 16.79 19.87 19.87 18.19 41.42 57.72 53.37 79.19 76.35 82.29 75.89 85.76"/>
            <rect class="cls-1" x="44.84" y="65.11" width="33.67" height="3.5" transform="translate(-28.24 80.62) rotate(-56.01)"/>
            <rect class="cls-1" x="70.07" y="67.72" width="41.75" height="3.5" transform="translate(-22.62 83.59) rotate(-44.46)"/>
            <polygon class="cls-1" points="87.5 116.65 74.43 84.76 77.67 83.43 89.37 111.99 106.54 104.33 123.39 97.56 134.92 73.07 138.08 74.55 125.96 100.29 107.9 107.55 87.5 116.65"/>
            <rect class="cls-1" x="113.48" y="52.83" width="3.5" height="48.02" transform="translate(-20.94 51.54) rotate(-23.17)"/>
            <rect class="cls-1" x="119.46" y="46.3" width="3.5" height="36.13" transform="translate(2.66 133.5) rotate(-58.22)"/>
            <polygon class="cls-1" points="129.51 48.51 88.38 23.84 69.1 34.08 67.47 30.99 88.48 19.82 129.91 44.68 146.98 38.79 148.13 42.09 129.51 48.51"/>
            <polygon class="cls-1" points="137.32 75.46 135.81 72.31 159.19 61.07 146.85 42.53 106.43 56.5 105.28 53.2 148.26 38.35 164.32 62.48 137.32 75.46"/>
            <rect class="cls-1" x="75.24" y="29.43" width="3.5" height="27.6" transform="translate(-10.01 58.3) rotate(-39.14)"/>
            <rect class="cls-1" x="76.61" y="46.06" width="3.5" height="14.72" transform="translate(20.21 128.33) rotate(-86.46)"/>
            <rect class="cls-1" x="94.03" y="44.24" width="3.5" height="20.17" transform="translate(37.2 147.56) rotate(-87.42)"/>
            <rect class="cls-1" x="71.69" y="36.8" width="30.76" height="3.5" transform="translate(40.95 121.86) rotate(-84.91)"/>
            <polygon class="cls-1" points="17.86 21.82 13.17 13.69 21.49 18.95 17.86 21.82"/>
          </g>
          <path d="M231.56,59.61l9.33-16.56h15.84l-15.79,27.17,16.46,28.3h-15.89l-9.89-17.43-9.84,17.43h-15.95l16.46-28.3-15.74-27.17h15.89l9.13,16.56Z"/>
          <path d="M288.36,99.55c-8.13,0-14.76-2.49-19.87-7.49-5.11-4.99-7.67-11.64-7.67-19.94v-1.44c0-5.57,1.08-10.55,3.23-14.94,2.15-4.39,5.2-7.78,9.15-10.15,3.95-2.38,8.45-3.56,13.51-3.56,7.59,0,13.56,2.39,17.92,7.18,4.36,4.79,6.54,11.57,6.54,20.35v6.05h-35.33c.48,3.62,1.92,6.53,4.33,8.72,2.41,2.19,5.46,3.28,9.15,3.28,5.71,0,10.17-2.07,13.38-6.2l7.28,8.15c-2.22,3.14-5.23,5.6-9.02,7.36-3.79,1.76-8,2.64-12.61,2.64Zm-1.69-45.58c-2.94,0-5.32,1-7.15,2.99-1.83,1.99-3,4.84-3.51,8.55h20.61v-1.18c-.07-3.3-.96-5.84-2.67-7.65-1.71-1.8-4.14-2.7-7.28-2.7Z"/>
          <path d="M317.28,70.27c0-5.5,1.06-10.41,3.18-14.71,2.12-4.31,5.17-7.64,9.15-10,3.98-2.36,8.6-3.54,13.87-3.54,7.49,0,13.59,2.29,18.33,6.87,4.73,4.58,7.37,10.8,7.92,18.66l.1,3.79c0,8.51-2.38,15.34-7.13,20.48-4.75,5.14-11.12,7.72-19.12,7.72s-14.38-2.56-19.15-7.69c-4.77-5.13-7.15-12.1-7.15-20.92v-.67Zm14.82,1.05c0,5.27,.99,9.3,2.97,12.09,1.98,2.79,4.82,4.19,8.51,4.19s6.39-1.38,8.41-4.13c2.02-2.76,3.02-7.16,3.02-13.22,0-5.17-1.01-9.17-3.02-12.02-2.02-2.84-4.85-4.26-8.51-4.26s-6.43,1.41-8.41,4.24-2.97,7.2-2.97,13.12Z"/>
          <g>
            <path class="cls-2" d="M409,83.19c0-1.81-.9-3.24-2.69-4.28-1.79-1.04-4.67-1.97-8.64-2.79-13.19-2.77-19.79-8.37-19.79-16.82,0-4.92,2.04-9.03,6.13-12.33,4.08-3.3,9.42-4.95,16.02-4.95,7.04,0,12.67,1.66,16.89,4.97,4.22,3.32,6.33,7.62,6.33,12.92h-14.82c0-2.12-.68-3.87-2.05-5.26-1.37-1.38-3.5-2.08-6.41-2.08-2.5,0-4.43,.56-5.79,1.69-1.37,1.13-2.05,2.56-2.05,4.31,0,1.64,.78,2.97,2.33,3.97,1.55,1.01,4.18,1.88,7.87,2.62,3.69,.74,6.8,1.56,9.33,2.49,7.83,2.87,11.74,7.84,11.74,14.92,0,5.06-2.17,9.15-6.51,12.28-4.34,3.13-9.95,4.69-16.82,4.69-4.65,0-8.78-.83-12.38-2.49-3.61-1.66-6.43-3.93-8.49-6.82-2.05-2.89-3.08-6.01-3.08-9.36h14.05c.14,2.63,1.11,4.65,2.92,6.05,1.81,1.4,4.24,2.1,7.28,2.1,2.84,0,4.98-.54,6.43-1.62,1.45-1.08,2.18-2.49,2.18-4.23Z"/>
            <path class="cls-2" d="M458.47,99.55c-8.13,0-14.76-2.49-19.87-7.49-5.11-4.99-7.67-11.64-7.67-19.94v-1.44c0-5.57,1.08-10.55,3.23-14.94,2.15-4.39,5.2-7.78,9.15-10.15,3.95-2.38,8.45-3.56,13.51-3.56,7.59,0,13.56,2.39,17.92,7.18,4.36,4.79,6.54,11.57,6.54,20.35v6.05h-35.33c.48,3.62,1.92,6.53,4.33,8.72,2.41,2.19,5.46,3.28,9.15,3.28,5.71,0,10.17-2.07,13.38-6.2l7.28,8.15c-2.22,3.14-5.23,5.6-9.02,7.36-3.79,1.76-8,2.64-12.61,2.64Zm-1.69-45.58c-2.94,0-5.32,1-7.15,2.99-1.83,1.99-3,4.84-3.51,8.55h20.61v-1.18c-.07-3.3-.96-5.84-2.67-7.65-1.71-1.8-4.14-2.7-7.28-2.7Z"/>
            <path class="cls-2" d="M520.87,56.94c-2.02-.27-3.79-.41-5.33-.41-5.61,0-9.28,1.9-11.02,5.69v36.3h-14.82V43.05h14l.41,6.61c2.97-5.09,7.09-7.64,12.36-7.64,1.64,0,3.18,.22,4.62,.67l-.21,14.25Z"/>
            <path class="cls-2" d="M549.68,80.43l10.3-37.38h15.48l-18.71,55.47h-14.15l-18.71-55.47h15.48l10.3,37.38Z"/>
            <path class="cls-2" d="M581.88,28.69c0-2.22,.74-4.05,2.23-5.49,1.49-1.44,3.51-2.15,6.08-2.15s4.54,.72,6.05,2.15,2.26,3.26,2.26,5.49-.76,4.1-2.28,5.54c-1.52,1.44-3.53,2.15-6.02,2.15s-4.5-.72-6.02-2.15c-1.52-1.44-2.28-3.28-2.28-5.54Zm15.74,69.83h-14.87V43.05h14.87v55.47Z"/>
            <path class="cls-2" d="M632.9,87.6c2.73,0,4.96-.75,6.67-2.26,1.71-1.5,2.6-3.5,2.67-6h13.89c-.03,3.76-1.06,7.2-3.08,10.33-2.02,3.13-4.78,5.55-8.28,7.28-3.5,1.73-7.38,2.59-11.61,2.59-7.93,0-14.18-2.52-18.76-7.56-4.58-5.04-6.87-12-6.87-20.89v-.97c0-8.54,2.27-15.36,6.82-20.46,4.54-5.09,10.78-7.64,18.71-7.64,6.94,0,12.5,1.97,16.69,5.92,4.19,3.95,6.31,9.2,6.38,15.77h-13.89c-.07-2.89-.96-5.23-2.67-7.04-1.71-1.8-3.97-2.71-6.77-2.71-3.45,0-6.06,1.26-7.82,3.77-1.76,2.52-2.64,6.6-2.64,12.25v1.54c0,5.72,.87,9.83,2.61,12.32,1.74,2.5,4.39,3.75,7.95,3.75Z"/>
            <path class="cls-2" d="M690.11,99.55c-8.13,0-14.76-2.49-19.87-7.49-5.11-4.99-7.67-11.64-7.67-19.94v-1.44c0-5.57,1.08-10.55,3.23-14.94,2.15-4.39,5.2-7.78,9.15-10.15,3.95-2.38,8.45-3.56,13.51-3.56,7.59,0,13.56,2.39,17.92,7.18,4.36,4.79,6.54,11.57,6.54,20.35v6.05h-35.33c.48,3.62,1.92,6.53,4.33,8.72,2.41,2.19,5.46,3.28,9.15,3.28,5.71,0,10.17-2.07,13.38-6.2l7.28,8.15c-2.22,3.14-5.23,5.6-9.02,7.36-3.79,1.76-8,2.64-12.61,2.64Zm-1.69-45.58c-2.94,0-5.32,1-7.15,2.99-1.83,1.99-3,4.84-3.51,8.55h20.61v-1.18c-.07-3.3-.96-5.84-2.67-7.65-1.71-1.8-4.14-2.7-7.28-2.7Z"/>
            <path class="cls-2" d="M751.38,83.19c0-1.81-.9-3.24-2.69-4.28-1.79-1.04-4.67-1.97-8.64-2.79-13.19-2.77-19.79-8.37-19.79-16.82,0-4.92,2.04-9.03,6.13-12.33,4.08-3.3,9.42-4.95,16.02-4.95,7.04,0,12.67,1.66,16.89,4.97,4.22,3.32,6.33,7.62,6.33,12.92h-14.82c0-2.12-.68-3.87-2.05-5.26-1.37-1.38-3.5-2.08-6.41-2.08-2.5,0-4.43,.56-5.79,1.69-1.37,1.13-2.05,2.56-2.05,4.31,0,1.64,.78,2.97,2.33,3.97,1.55,1.01,4.18,1.88,7.87,2.62,3.69,.74,6.8,1.56,9.33,2.49,7.83,2.87,11.74,7.84,11.74,14.92,0,5.06-2.17,9.15-6.51,12.28-4.34,3.13-9.95,4.69-16.82,4.69-4.65,0-8.78-.83-12.38-2.49-3.61-1.66-6.43-3.93-8.49-6.82-2.05-2.89-3.08-6.01-3.08-9.36h14.05c.14,2.63,1.11,4.65,2.92,6.05,1.81,1.4,4.24,2.1,7.28,2.1,2.84,0,4.98-.54,6.43-1.62,1.45-1.08,2.18-2.49,2.18-4.23Z"/>
          </g>
        </g>
        <path class="cls-3" d="M765.79,109.64h-85.14l-10.04,42.01h85.15l10.03-42.01h0Z"/>
      </g>
      <g>
        <path class="cls-1" d="M692.94,140v-18.65h6.39c2.11,0,3.72,.42,4.82,1.27,1.1,.85,1.65,2.11,1.65,3.78,0,.85-.23,1.62-.69,2.31s-1.14,1.21-2.02,1.59c1.01,.27,1.79,.79,2.34,1.54,.55,.76,.83,1.66,.83,2.72,0,1.75-.56,3.1-1.68,4.04s-2.73,1.41-4.82,1.41h-6.8Zm3.24-10.8h3.18c1.01,0,1.79-.23,2.36-.69s.85-1.1,.85-1.94c0-.92-.26-1.59-.79-2-.53-.41-1.34-.61-2.45-.61h-3.15v5.24Zm0,2.38v5.83h3.6c1.02,0,1.81-.25,2.38-.76,.57-.5,.86-1.2,.86-2.1,0-1.94-.99-2.93-2.97-2.97h-3.87Z"/>
        <path class="cls-1" d="M715.3,140.26c-1.97,0-3.57-.62-4.8-1.86-1.23-1.24-1.84-2.9-1.84-4.96v-.38c0-1.38,.27-2.62,.8-3.71,.53-1.09,1.28-1.94,2.25-2.54,.96-.61,2.04-.91,3.23-.91,1.89,0,3.35,.6,4.37,1.81,1.03,1.21,1.54,2.91,1.54,5.11v1.26h-9.06c.09,1.14,.48,2.05,1.15,2.72s1.51,1,2.53,1c1.43,0,2.59-.58,3.48-1.73l1.68,1.6c-.55,.83-1.3,1.47-2.22,1.93s-1.97,.69-3.12,.69Zm-.37-11.87c-.85,0-1.54,.3-2.07,.9-.53,.6-.86,1.43-1.01,2.5h5.93v-.23c-.07-1.04-.35-1.83-.83-2.36s-1.16-.8-2.02-.8Z"/>
        <path class="cls-1" d="M727.17,122.77v3.37h2.45v2.31h-2.45v7.74c0,.53,.1,.91,.31,1.15s.58,.35,1.12,.35c.36,0,.72-.04,1.09-.13v2.41c-.71,.2-1.39,.29-2.05,.29-2.39,0-3.59-1.32-3.59-3.96v-7.85h-2.28v-2.31h2.28v-3.37h3.11Z"/>
        <path class="cls-1" d="M740.27,140c-.14-.27-.26-.7-.36-1.29-.99,1.03-2.2,1.55-3.64,1.55s-2.53-.4-3.41-1.19c-.88-.79-1.32-1.78-1.32-2.95,0-1.48,.55-2.61,1.65-3.4s2.67-1.19,4.71-1.19h1.91v-.91c0-.72-.2-1.29-.6-1.72s-1.01-.65-1.83-.65c-.71,0-1.29,.18-1.74,.53-.45,.35-.68,.8-.68,1.35h-3.11c0-.76,.25-1.47,.76-2.13s1.19-1.18,2.06-1.56,1.83-.56,2.9-.56c1.62,0,2.92,.41,3.88,1.22s1.46,1.96,1.49,3.44v6.25c0,1.25,.17,2.24,.52,2.98v.22h-3.18Zm-3.42-2.24c.61,0,1.19-.15,1.74-.45s.95-.7,1.22-1.2v-2.61h-1.68c-1.15,0-2.02,.2-2.6,.6-.58,.4-.87,.97-.87,1.7,0,.6,.2,1.07,.59,1.43,.4,.35,.93,.53,1.6,.53Z"/>
      </g>
    </g>
  </g>
</svg>